<svg width="78" height="46" viewBox="0 0 78 46" fill="none" xmlns="http://www.w3.org/2000/svg">
<path d="M73.1322 1H4.98276C2.78314 1 1 3.06051 1 5.60227V40.375C1 42.9168 2.78314 44.9773 4.98276 44.9773H73.1322C75.3318 44.9773 77.1149 42.9168 77.1149 40.375V5.60227C77.1149 3.06051 75.3318 1 73.1322 1Z" stroke="#5A646C"/>
<path d="M46.1092 21.3133H38.6097V24.8752H42.894C42.7093 26.0265 42.1488 27.0004 41.304 27.6528C40.5899 28.2044 39.6788 28.5307 38.6077 28.5307C36.5341 28.5307 34.7801 26.9116 34.1532 24.7361C33.9955 24.1844 33.9041 23.5944 33.9041 22.9875C33.9041 22.3807 33.9955 21.7906 34.1532 21.2389C34.7821 19.0659 36.5361 17.4468 38.6097 17.4468C39.7783 17.4468 40.8266 17.9121 41.6527 18.8236L43.936 16.1828C42.5557 14.6956 40.7561 13.7842 38.6097 13.7842C35.4983 13.7842 32.806 15.8469 31.4963 18.8548C30.9566 20.0973 30.6494 21.5028 30.6494 22.99C30.6494 24.477 30.9566 25.8802 31.4963 27.1227C32.806 30.1305 35.4983 32.1933 38.6097 32.1933C40.7601 32.1933 42.5618 31.3681 43.8779 29.9626C45.3828 28.3603 46.2524 26.0001 46.2524 23.1962C46.2524 22.5438 46.2027 21.9177 46.1092 21.3133Z" fill="#5A646C"/>
</svg>
