<svg width="88" height="45" viewBox="0 0 88 45" fill="none" xmlns="http://www.w3.org/2000/svg">
<path d="M82.5 1H5.5C3.01472 1 1 3.01472 1 5.5V39.5C1 41.9853 3.01472 44 5.5 44H82.5C84.9853 44 87 41.9853 87 39.5V5.5C87 3.01472 84.9853 1 82.5 1Z" stroke="#5A646C"/>
<path d="M36.6671 17.8341C37.8639 17.8341 38.8341 16.8639 38.8341 15.6671C38.8341 14.4702 37.8639 13.5 36.6671 13.5C35.4702 13.5 34.5 14.4702 34.5 15.6671C34.5 16.8639 35.4702 17.8341 36.6671 17.8341Z" fill="#5A646C"/>
<path d="M40.8811 19.4763V31.4992H44.614V25.5536C44.614 23.9848 44.9092 22.4655 46.8544 22.4655C48.7728 22.4655 48.7966 24.2591 48.7966 25.6527V31.5002H52.5315V24.9069C52.5315 21.6682 51.8343 19.1792 48.0488 19.1792C46.2314 19.1792 45.0132 20.1766 44.515 21.1204H44.4645V19.4763H40.8811ZM34.7979 19.4763H38.5367V31.4992H34.7979V19.4763Z" fill="#5A646C"/>
</svg>
