<svg width="88" height="45" viewBox="0 0 88 45" fill="none" xmlns="http://www.w3.org/2000/svg">
<path d="M82.5 1H5.5C3.01472 1 1 3.01472 1 5.5V39.5C1 41.9853 3.01472 44 5.5 44H82.5C84.9853 44 87 41.9853 87 39.5V5.5C87 3.01472 84.9853 1 82.5 1Z" stroke="#5A646C"/>
<path d="M44.897 31.4972V23.3012H47.662L48.073 20.0922H44.897V18.0482C44.897 17.1222 45.155 16.4882 46.484 16.4882H48.168V13.6272C47.3487 13.5394 46.5251 13.497 45.701 13.5002C43.257 13.5002 41.579 14.9922 41.579 17.7312V20.0862H38.832V23.2952H41.585V31.4972H44.897Z" fill="#5A646C"/>
</svg>
