<svg width="352" height="186" viewBox="0 0 352 186" fill="none" xmlns="http://www.w3.org/2000/svg">
<path d="M317.308 152.46C313.308 149.02 309.218 145.69 305.148 142.34C304.878 142.12 304.498 142.49 304.758 142.72C308.758 146.13 312.758 149.55 316.888 152.87C317.178 153.11 317.588 152.71 317.308 152.46Z" fill="#3C3C3B"/>
<path d="M351.027 156.04C351.077 155.949 351.099 155.845 351.091 155.741C350.057 143.226 348.747 130.728 347.361 118.237C347.361 118.237 347.39 118.237 347.396 118.191V118.058C347.406 118.018 347.403 117.976 347.387 117.938C347.372 117.899 347.344 117.867 347.309 117.845V117.845C346.659 111.989 345.997 106.14 345.323 100.299C344.29 91.2553 343.182 82.2174 342.073 73.1795C341.519 68.6586 340.967 64.1397 340.416 59.6226C339.868 55.1497 339.631 50.3717 338.459 46.014C338.439 45.9588 338.4 45.9123 338.349 45.8822C338.299 45.852 338.239 45.8399 338.181 45.848C338.122 45.856 338.068 45.8837 338.028 45.9264C337.987 45.9692 337.962 46.0244 337.957 46.0831C337.957 46.6184 337.957 47.1538 337.992 47.6949C337.495 47.2344 336.958 46.8026 336.422 46.3939C336.733 46.3939 337.057 46.4342 337.38 46.4342C337.449 46.4362 337.517 46.4148 337.572 46.3733C337.628 46.3319 337.668 46.2729 337.685 46.206C337.702 46.1392 337.697 46.0684 337.668 46.0053C337.64 45.9421 337.591 45.8904 337.53 45.8586C336.093 45.0814 334.297 45.1908 332.704 45.5419C332.675 45.2771 332.64 45.0181 332.611 44.7533C332.461 43.602 332.213 41.4835 330.88 41.4432C330.925 40.3053 330.91 39.1658 330.833 38.0295C330.833 37.8396 330.66 37.6093 330.441 37.6381C329.981 37.704 329.513 37.6525 329.078 37.4884C329.03 37.4713 328.977 37.4713 328.928 37.4884C329.581 36.0205 328.998 33.4588 327.197 33.7927C327.197 32.5377 325.892 31.8872 324.726 31.49C324.553 30.2581 324.374 29.0262 324.148 27.8C324.219 27.7882 324.284 27.7551 324.336 27.7054C324.387 27.6556 324.422 27.5914 324.435 27.5214C324.449 27.4514 324.441 27.3789 324.413 27.3135C324.384 27.248 324.336 27.1929 324.275 27.1553C322.728 26.24 320.679 26.5796 318.993 27.1553C318.733 25.1865 318.416 23.2293 318.052 21.295V21.2547C318.102 21.2107 318.14 21.1541 318.161 21.0908C318.182 21.0275 318.185 20.9598 318.171 20.8946C318.157 20.8295 318.126 20.7693 318.08 20.7203C318.035 20.6712 317.978 20.6351 317.914 20.6157C314.538 19.4938 310.929 19.2578 307.436 19.9307C307.089 14.9109 306.726 9.88539 306.281 4.87137C306.372 4.73427 306.412 4.57047 306.397 4.40714C306.381 4.24381 306.31 4.09075 306.195 3.97334C306.184 3.91195 306.158 3.85443 306.118 3.80667C306.078 3.75891 306.025 3.72263 305.967 3.70154C305.908 3.68045 305.845 3.67531 305.783 3.68666C305.722 3.698 305.665 3.72542 305.617 3.7661C291.513 0.775504 276.949 0.639293 262.79 3.36554C248.632 6.09178 235.166 11.625 223.192 19.6371C216.432 24.1849 209.545 29.4809 204.453 35.9226C195.95 21.2835 181.003 10.674 165.197 5.10739C155.469 1.76188 145.255 0.0386436 134.965 0.00701949C124.677 -0.0850865 113.097 0.697815 103.364 4.22663C103.297 4.24558 103.237 4.28153 103.188 4.33094C103.14 4.38034 103.105 4.44148 103.088 4.50833C103.07 4.57517 103.07 4.64541 103.088 4.71211C103.107 4.7788 103.142 4.83965 103.191 4.88864C103.189 4.902 103.189 4.91557 103.191 4.92894C102.734 8.31383 102.325 11.7102 101.978 15.1067C98.9821 14.3986 95.2586 16.1256 93.2842 18.2267C93.2146 18.31 93.1809 18.4174 93.1907 18.5253C93.2004 18.6333 93.2527 18.7329 93.3362 18.8024C93.1284 20.7251 92.9321 22.6536 92.7589 24.559C90.7903 23.9834 88.4581 25.0599 86.9456 26.2515C86.7724 26.1133 86.4433 26.1364 86.4029 26.4069C86.097 28.4045 85.8256 30.4365 85.5428 32.4168C81.8885 33.5279 79.7179 38.1735 78.3209 41.3223C78.3006 41.3666 78.2901 41.4147 78.2901 41.4634C78.2901 41.512 78.3006 41.5601 78.3209 41.6044C78.3209 41.6044 78.3209 41.6389 78.3209 41.662C78.165 42.5773 78.0322 43.4983 77.8879 44.4194C77.8688 44.4165 77.8493 44.4165 77.8302 44.4194C76.6346 44.7398 75.4199 44.9839 74.1932 45.1505C73.2003 45.2599 72.1958 45.2138 71.2086 45.3692C71.1363 45.3805 71.0697 45.4154 71.0195 45.4686C70.9694 45.5218 70.9384 45.5901 70.9315 45.6628C70.8911 45.3865 70.4351 45.3002 70.3889 45.6168C70.36 45.7664 70.3427 45.9219 70.3254 46.0773L70.1349 45.9622C69.9963 45.8816 69.8809 46.0888 70.0079 46.1752L70.285 46.3766C70.2273 46.7681 70.1753 47.1595 70.1233 47.528C70.0913 47.5168 70.0563 47.5173 70.0246 47.5294C69.9929 47.5414 69.9664 47.5642 69.9499 47.5937C69.9333 47.6233 69.9278 47.6577 69.9341 47.691C69.9405 47.7242 69.9585 47.7541 69.9848 47.7755L70.0772 47.8388C70.0252 48.236 69.9617 48.6332 69.9155 49.0305C69.8915 49.0272 69.867 49.032 69.846 49.044C69.8249 49.0561 69.8085 49.0748 69.7993 49.0972C69.79 49.1196 69.7885 49.1444 69.7949 49.1677C69.8013 49.191 69.8153 49.2116 69.8347 49.2262L69.8924 49.2607C68.963 57.1243 68.8071 65.1663 68.1606 73.0298C67.3812 82.5225 66.5557 92.0267 65.6032 101.491C64.6506 110.954 63.548 120.43 62.405 129.888C61.8585 134.424 61.3004 138.96 60.7308 143.497C60.2113 147.705 59.1029 152.132 59.9919 156.334C59.998 156.36 60.0077 156.385 60.0208 156.409C59.8423 156.729 59.752 157.09 59.7591 157.456C59.7662 157.822 59.8704 158.18 60.0612 158.493C60.4133 159.068 61.3139 159.794 62.0124 159.373C62.0837 159.326 62.1396 159.259 62.1734 159.18C62.2072 159.101 62.2175 159.015 62.2029 158.93C66.9944 158.93 71.9129 157.739 76.6352 157.042C82.2349 156.213 87.8404 155.446 93.4516 154.739C103.843 153.421 114.234 152.345 124.625 151.683C135.017 151.021 145.471 150.79 155.897 151.17C165.936 151.533 176.039 153.053 186.049 151.562C189.443 159.621 199.396 161.924 207.322 161.999C214.336 162.068 224.208 159.765 225.64 151.637C225.673 151.651 225.708 151.663 225.743 151.671C231.776 152.466 237.913 152.535 243.986 152.892L262.222 153.98C273.868 154.682 285.516 155.357 297.166 156.006C309 156.685 320.831 157.374 332.658 158.072C335.717 158.251 338.777 158.412 341.837 158.573C344.244 158.694 347.292 159.356 349.653 158.896C351.085 158.677 352.516 156.835 351.027 156.04ZM349.803 153.939C346.917 151.435 343.747 149.178 340.763 146.778L343.153 146.899C345.083 149.152 347.279 151.164 349.694 152.892C349.728 153.237 349.763 153.588 349.803 153.939V153.939ZM349.618 152.212C348.712 151.441 347.754 150.721 346.853 149.944C345.699 148.96 344.631 147.895 343.47 146.922C343.558 146.932 343.647 146.923 343.731 146.896C343.815 146.869 343.893 146.825 343.959 146.766C344.025 146.708 344.077 146.636 344.113 146.556C344.15 146.475 344.169 146.388 344.169 146.3C344.246 146.336 344.332 146.352 344.417 146.346C345.937 148.011 347.63 149.511 349.468 150.819C349.526 151.274 349.572 151.734 349.618 152.201V152.212ZM349.411 150.22C347.728 149.034 346.143 147.715 344.671 146.277C344.737 146.244 344.792 146.192 344.827 146.127C344.862 146.062 344.876 145.988 344.867 145.914C344.81 145.339 344.752 144.809 344.688 144.257C346.096 145.706 347.607 147.053 349.209 148.286C349.278 148.925 349.341 149.57 349.405 150.209L349.411 150.22ZM349.145 147.636C347.627 146.364 346.097 145.114 344.636 143.773C344.567 143.094 344.492 142.409 344.417 141.724C344.994 142.34 345.618 142.938 346.259 143.502C347.05 144.302 347.947 144.989 348.926 145.546C349.001 146.225 349.07 146.928 349.145 147.624V147.636ZM348.874 145.022C348.1 144.331 347.171 143.779 346.38 143.123C345.681 142.547 345.023 141.971 344.371 141.332C344.302 140.693 344.232 140.054 344.157 139.415C345.524 140.525 346.971 141.531 348.487 142.426C348.526 142.44 348.569 142.44 348.608 142.426C348.695 143.289 348.781 144.147 348.874 145.011V145.022ZM348.198 138.477C347.552 137.861 346.807 137.326 346.126 136.75L344.971 135.783C344.723 135.587 344.486 135.368 344.227 135.207C344.106 135.108 343.979 135.018 343.846 134.937C343.849 134.925 343.849 134.913 343.846 134.902V134.856C343.846 134.856 343.817 134.816 343.794 134.816H343.719C343.711 134.816 343.704 134.817 343.697 134.82C343.691 134.823 343.685 134.827 343.68 134.833C343.675 134.838 343.671 134.845 343.669 134.852C343.667 134.859 343.666 134.866 343.667 134.873C343.603 135.34 345.271 136.445 345.624 136.75C346.46 137.545 347.341 138.293 348.262 138.989C348.366 140.02 348.475 141.056 348.579 142.086C347.169 140.972 345.682 139.958 344.128 139.053C344.071 138.534 344.007 138.011 343.949 137.493C345.176 138.652 346.569 139.622 348.083 140.371C348.25 140.446 348.481 140.227 348.302 140.083C347.615 139.553 346.819 139.162 346.091 138.684C345.364 138.206 344.619 137.648 343.903 137.101C343.771 135.875 343.62 134.655 343.482 133.428C345 134.821 346.53 136.215 348.1 137.527C348.135 137.821 348.169 138.166 348.198 138.465V138.477ZM348.06 137.09C346.559 135.731 344.994 134.43 343.441 133.141C343.378 132.565 343.303 131.989 343.239 131.414C344.571 132.889 346.13 134.142 347.858 135.127L348.06 137.09ZM347.812 134.655C346.173 133.6 344.628 132.408 343.193 131.091C343.124 130.487 343.049 129.888 342.98 129.284C343.418 129.687 343.869 130.084 344.313 130.487C345.427 131.477 346.507 132.53 347.679 133.451C347.725 133.843 347.765 134.246 347.812 134.643V134.655ZM347.638 132.985C346.801 132.196 345.906 131.471 345.023 130.723L343.678 129.571C343.551 129.462 343.245 129.261 342.951 129.036C342.87 128.34 342.783 127.643 342.703 126.952C344.2 128.356 345.776 129.672 347.425 130.895C347.494 131.575 347.569 132.277 347.638 132.985V132.985ZM347.182 128.518C346.472 127.971 345.722 127.47 345.046 126.883C344.164 126.108 343.338 125.271 342.576 124.379C342.506 124.298 342.397 124.413 342.46 124.488C343.782 126.071 345.398 127.896 347.228 128.973L347.367 130.343C345.924 129.002 344.238 127.833 342.668 126.63C342.512 125.329 342.356 124.022 342.195 122.721C343.577 124.391 345.206 125.841 347.026 127.021L347.182 128.518ZM346.98 126.566C346.189 125.945 345.37 125.363 344.608 124.713C343.846 124.062 342.974 123.205 342.166 122.41C342.096 121.863 342.027 121.311 341.964 120.764C343.445 122.164 345.055 123.423 346.772 124.523L346.98 126.566ZM346.72 124.062C345.15 122.825 343.493 121.691 341.917 120.441C341.802 119.469 341.681 118.496 341.559 117.517C342.616 118.668 343.695 119.82 344.833 120.867C345.41 121.391 345.987 121.915 346.565 122.422C346.611 122.957 346.669 123.504 346.72 124.051V124.062ZM346.495 121.875L345.722 121.207C345.229 120.781 344.744 120.344 344.267 119.895C343.326 119.02 342.414 118.116 341.525 117.195C341.479 116.832 341.433 116.475 341.392 116.112C342.443 117.074 343.488 118.041 344.544 118.991C344.948 119.359 345.699 120.361 346.38 120.758C346.42 121.121 346.455 121.472 346.518 121.863L346.495 121.875ZM346.316 120.148C345.86 119.705 345.289 119.163 345.202 119.089L343.592 117.678L341.323 115.715C341.23 114.978 341.138 114.247 341.051 113.51C341.15 113.608 341.282 113.689 341.45 113.827C342.316 114.518 343.211 115.174 344.065 115.888C344.735 116.464 345.387 117.039 346.034 117.615L346.316 120.148ZM345.999 117.108C345.791 116.895 345.606 116.717 345.543 116.659C345.029 116.222 344.509 115.79 343.978 115.376C343.615 115.088 343.245 114.8 342.876 114.535C342.298 114.115 341.75 113.556 341.178 113.177C341.236 113.211 341.282 113.125 341.23 113.084L341.115 112.998C341.106 112.992 341.096 112.989 341.086 112.989C341.076 112.989 341.066 112.992 341.057 112.998L341.011 113.033C340.93 112.342 340.844 111.651 340.757 110.96C342.27 112.662 343.972 114.185 345.831 115.502C345.889 116.032 345.941 116.567 345.999 117.103V117.108ZM345.774 114.921C344.942 114.201 344.042 113.551 343.205 112.843C342.368 112.135 341.525 111.34 340.711 110.54L340.434 108.295C341.242 109.066 342.062 109.826 342.882 110.598C343.736 111.453 344.636 112.262 345.577 113.021C345.641 113.654 345.71 114.282 345.774 114.915V114.921ZM345.525 112.555C344.729 111.714 343.794 110.966 342.957 110.195C342.119 109.423 341.225 108.646 340.382 107.892L340.174 106.2C341.733 107.742 343.436 109.406 345.3 110.436L345.525 112.555ZM345.254 110.028C344.382 109.21 343.349 108.537 342.425 107.777C341.646 107.138 340.878 106.476 340.116 105.814C340.041 105.158 339.96 104.507 339.88 103.851C341.493 105.514 343.229 107.054 345.075 108.456C345.144 108.991 345.202 109.504 345.254 110.022V110.028ZM345.023 107.869C343.343 106.361 341.56 104.956 339.828 103.471C339.758 102.936 339.695 102.406 339.631 101.871C341.363 103.402 343.02 105.123 344.867 106.51C344.925 106.959 344.977 107.408 345.023 107.863V107.869ZM344.81 105.843C343.251 104.363 341.456 103.056 339.816 101.698C339.802 101.685 339.785 101.676 339.767 101.672C339.748 101.667 339.729 101.666 339.711 101.67C339.692 101.674 339.675 101.682 339.66 101.694C339.645 101.706 339.633 101.721 339.626 101.738C339.51 100.834 339.4 99.9305 339.291 99.0267C341.023 100.644 342.754 102.308 344.59 103.822C344.665 104.49 344.735 105.163 344.787 105.837L344.81 105.843ZM344.515 103.125C342.818 101.565 341.005 100.097 339.245 98.6353C339.152 97.9215 339.066 97.2077 338.979 96.4938C340.78 97.9733 342.483 99.5852 344.296 101.036C344.371 101.727 344.446 102.423 344.515 103.12V103.125ZM344.221 100.357C342.583 98.7907 340.814 97.3674 338.933 96.1024C338.858 95.5267 338.788 94.9511 338.719 94.3754C340.363 96.0635 342.151 97.6045 344.065 98.9807L344.221 100.357ZM344.013 98.5202C342.281 96.9601 340.44 95.5382 338.673 94.0243C338.61 93.4486 338.54 92.9132 338.471 92.3548C340.162 94.202 341.977 95.933 343.903 97.5358C343.944 97.8697 343.978 98.1863 344.013 98.5144V98.5202ZM343.851 97.0465C342.062 95.3195 340.214 93.6961 338.425 91.9864C338.373 91.5546 338.321 91.1229 338.263 90.6912C339.863 92.4179 341.65 93.9625 343.592 95.2965C343.592 95.2965 343.632 95.2965 343.655 95.2965C343.719 95.8664 343.788 96.4535 343.851 97.0407V97.0465ZM343.355 92.6311C343.441 93.3795 343.522 94.1336 343.609 94.882C341.796 93.345 339.949 91.9058 338.217 90.2767C338.119 89.4938 338.026 88.7109 337.928 87.9337C337.928 87.8589 337.928 87.7841 337.899 87.715C339.52 89.5381 341.338 91.1772 343.32 92.6024C343.32 92.6024 343.343 92.6196 343.355 92.6254V92.6311ZM343.314 92.2685C341.583 90.5818 339.637 89.0851 337.865 87.4156L337.692 86.0398C339.396 87.7127 341.215 89.265 343.135 90.6854C343.199 91.2093 343.257 91.7331 343.314 92.2627V92.2685ZM343.072 90.1097C341.34 88.5382 339.504 87.0069 337.64 85.5965L337.432 83.9156C339.094 85.5083 340.91 86.9333 342.853 88.1698C342.928 88.8145 343.003 89.4592 343.055 90.104L343.072 90.1097ZM342.806 87.738C341.075 86.3046 339.152 85.0266 337.391 83.5932C337.316 83.0176 337.247 82.4419 337.172 81.8662C337.368 82.0159 337.611 82.1656 337.749 82.2692L340.318 84.215C340.792 84.5776 341.779 85.6081 342.627 85.9419C342.668 86.5349 342.737 87.1336 342.806 87.7323V87.738ZM342.547 85.4354C342.339 85.2857 342.143 85.1187 341.998 85.0151C341.346 84.5603 340.722 84.071 340.082 83.599C339.152 82.914 338.153 81.9814 337.12 81.3712L336.895 79.5463C337.767 80.358 338.725 81.0949 339.66 81.849C340.526 82.5681 341.427 83.2425 342.362 83.8696C342.425 84.3934 342.477 84.923 342.547 85.4469V85.4354ZM342.102 81.5899C341.173 81.0143 340.272 80.0817 339.499 79.483C338.725 78.8843 337.796 78.1475 336.93 77.497C336.831 77.4279 336.704 77.5948 336.797 77.6697C337.951 78.6425 339.17 79.5924 340.365 80.548C340.921 81.0764 341.517 81.5613 342.148 81.9986C342.2 82.4592 342.258 82.9197 342.31 83.386C341.508 82.7643 340.647 82.2059 339.839 81.5957C338.835 80.8416 337.871 80.0241 336.86 79.293C336.71 78.0669 336.554 76.8407 336.404 75.6146L336.479 75.6779C337.085 76.219 337.772 76.7026 338.413 77.2034C339.568 78.0957 340.682 79.0858 341.906 79.8745C341.969 80.4501 342.039 81.0258 342.102 81.6014V81.5899ZM341.865 79.5118C341.109 78.8498 340.272 78.2626 339.475 77.6524C338.395 76.9224 337.356 76.1325 336.364 75.2864V75.2519C336.38 75.2548 336.396 75.2525 336.411 75.2452C336.426 75.238 336.437 75.2261 336.445 75.2116L336.474 75.1367C336.477 75.1214 336.476 75.1053 336.469 75.0909C336.463 75.0764 336.452 75.0643 336.439 75.0562C336.406 75.0292 336.369 75.0078 336.329 74.9928C336.289 74.682 336.254 74.3711 336.214 74.066C337.776 75.7813 339.641 77.1959 341.715 78.2396C341.767 78.6771 341.813 79.0973 341.865 79.5233V79.5118ZM341.663 77.7503C339.694 76.5688 337.85 75.1896 336.162 73.6343C336.081 72.9723 335.994 72.3045 335.914 71.6425C337.489 73.5541 339.383 75.1802 341.513 76.4493C341.559 76.8983 341.611 77.33 341.663 77.7618V77.7503ZM341.467 76.0636C339.502 74.602 337.634 73.0156 335.873 71.3144L335.613 69.2189C337.339 70.9664 339.217 72.5576 341.225 73.9739L341.467 76.0636ZM341.132 73.1853C341.132 73.3004 341.161 73.4213 341.173 73.5422C339.314 71.9879 337.386 70.5257 335.573 68.9023L335.296 66.6457C336.886 68.29 338.613 69.7978 340.457 71.1532C340.572 71.228 340.676 71.0668 340.595 70.9747C339.643 70.0057 338.627 69.1018 337.553 68.2691L335.244 66.3003C335.163 65.6153 335.077 64.9245 334.99 64.2395C336.624 66.0816 338.546 68.0619 340.647 69.2995C340.809 70.5775 340.976 71.867 341.132 73.168V73.1853ZM340.601 68.9023C339.678 68.0849 338.644 67.3711 337.715 66.5594C336.785 65.7477 335.862 64.8324 334.967 63.9344L334.742 62.1498C336.394 63.9905 338.285 65.6031 340.365 66.9451C340.44 67.5783 340.526 68.2288 340.601 68.8851V68.9023ZM340.301 66.4558C338.425 64.9418 336.416 63.5084 334.695 61.8159L334.47 59.9796C336.252 61.8886 338.155 63.6808 340.168 65.3447C340.209 65.7074 340.255 66.0758 340.301 66.4385V66.4558ZM339.903 63.2378C339.972 63.8135 340.041 64.3258 340.105 64.8727C338.148 63.1975 336.243 61.4763 334.43 59.6514V59.5478C334.343 58.857 334.263 58.172 334.176 57.4812C334.994 58.5303 335.888 59.5192 336.849 60.4401C337.779 61.4496 338.791 62.3814 339.874 63.2263C339.874 63.2263 339.891 63.2148 339.903 63.2205V63.2378ZM339.856 62.8348C338.956 61.9368 337.951 61.1079 337.034 60.2444C336.116 59.3809 335.157 58.2814 334.147 57.366L333.939 55.6391C334.718 56.5459 335.543 57.4125 336.41 58.2353C337.375 59.2452 338.409 60.1876 339.504 61.056C339.523 61.0684 339.545 61.075 339.568 61.075C339.59 61.075 339.612 61.0684 339.631 61.056C339.712 61.6605 339.781 62.2419 339.856 62.8176V62.8348ZM338.95 56.0708C339.129 57.2682 339.308 58.4541 339.458 59.6284L339.597 60.7337C338.65 59.7953 337.611 58.9491 336.653 58.0281C335.694 57.107 334.857 56.1687 333.905 55.3109C333.83 54.6835 333.749 54.056 333.674 53.4285C334.141 54.0042 334.788 54.5165 335.146 54.8792C336.095 55.9667 337.175 56.9334 338.361 57.7575C338.511 57.8554 338.667 57.6424 338.546 57.5157C337.755 56.6637 336.774 55.9672 335.931 55.1613C335.533 54.7756 335.134 54.3841 334.747 54.0099L334.239 53.4746C334.084 53.3076 333.778 52.8471 333.57 52.6226V52.5017C333.579 52.4936 333.587 52.4835 333.593 52.472C333.598 52.4606 333.601 52.4481 333.601 52.4355C333.601 52.4229 333.598 52.4104 333.593 52.399C333.587 52.3875 333.579 52.3774 333.57 52.3693H333.541C333.495 51.9836 333.449 51.5979 333.397 51.218C334.349 52.1678 335.325 53.1004 336.283 54.0272L338.015 55.6736C338.304 55.9442 338.471 56.2032 338.869 56.1744L338.95 56.0708ZM338.633 53.9006C338.708 54.4762 338.789 54.9943 338.869 55.5354C338.843 55.5278 338.815 55.5278 338.788 55.5354L338.719 55.5757C338.695 55.5904 338.676 55.6121 338.665 55.6378C338.654 55.6635 338.65 55.6921 338.656 55.7197C338.275 55.38 337.409 54.4647 337.253 54.3265C336.71 53.8487 336.173 53.3652 335.636 52.8759L333.356 50.815C333.304 50.3775 333.247 49.94 333.195 49.5025C334.902 51.0705 336.707 52.5298 338.598 53.8718C338.598 53.8718 338.621 53.8775 338.633 53.8833V53.9006ZM338.569 53.4631C336.846 51.9169 335.036 50.4697 333.148 49.1283C333.056 48.3857 332.969 47.6431 332.877 46.9005C333.454 47.4359 334.032 47.9597 334.609 48.4893C335.827 49.5888 337.016 50.792 338.327 51.7821C338.436 52.3232 338.494 52.8816 338.569 53.4458V53.4631ZM336 46.3709C336.704 46.9466 337.363 47.5683 338.026 48.1727C338.026 48.5642 338.073 48.9499 338.102 49.324C337.576 48.852 337.022 48.4087 336.491 47.954L335.446 47.0617C335.076 46.8151 334.725 46.5419 334.395 46.2442C334.932 46.2673 335.463 46.3133 336 46.3536V46.3709ZM334.147 46.2558C334.231 46.3894 334.336 46.5081 334.459 46.6069C334.909 47.0444 335.388 47.4589 335.85 47.8849C336.612 48.5757 337.357 49.3068 338.159 49.963C338.2 50.3717 338.24 50.7862 338.286 51.1949C337.391 50.3314 336.393 49.5486 335.458 48.7426C335.198 48.5181 333.726 47.4013 332.854 46.6472C332.854 46.5321 332.825 46.4112 332.808 46.2961C333.253 46.2485 333.7 46.2293 334.147 46.2385V46.2558ZM321.412 27.4892C322.168 27.4892 322.907 27.7022 323.652 27.7655C323.681 28.9859 323.733 30.2063 323.79 31.4267C323.752 31.4761 323.731 31.5369 323.731 31.5994C323.731 31.6619 323.752 31.7227 323.79 31.7721C324.172 38.9679 325.095 46.1636 325.782 53.3364L328.253 79.0282C329.881 95.9681 331.482 112.91 333.056 129.853C312.377 126.52 291.376 123.901 270.403 125.219C251.704 126.371 232.163 130.625 216.097 140.618C216.027 140.66 215.975 140.727 215.955 140.806C215.934 140.885 215.946 140.968 215.987 141.039C216.029 141.109 216.096 141.16 216.175 141.18C216.254 141.201 216.338 141.189 216.409 141.148C220.246 139.131 224.182 137.308 228.203 135.685C228.393 136.007 229.207 136.174 229.502 136.289C230.275 136.6 231.043 136.9 231.811 137.193C231.967 137.251 232.03 137.009 231.88 136.946L230.079 136.232C229.634 136.059 228.832 135.915 228.497 135.564C229.975 134.988 231.47 134.413 232.965 133.872C236.14 135.288 239.287 136.75 242.398 138.293C242.548 138.368 242.681 138.143 242.531 138.068C239.529 136.485 236.464 135.034 233.323 133.739C234.686 133.256 236.06 132.801 237.434 132.363C238.796 132.997 240.17 133.603 241.555 134.182C241.659 134.223 241.729 134.05 241.631 134.004C240.337 133.398 239.033 132.822 237.717 132.277C238.571 132.006 239.448 131.753 240.28 131.5C243.605 133.123 246.942 134.724 250.301 136.272C250.452 136.341 250.584 136.122 250.434 136.048C247.19 134.453 243.917 132.916 240.62 131.396C241.936 131.012 243.262 130.654 244.598 130.32C248.593 132.392 252.591 134.459 256.594 136.52C256.738 136.595 256.871 136.376 256.721 136.295C252.853 134.171 248.91 132.145 244.927 130.239C246.393 129.865 247.871 129.525 249.349 129.209C255.843 132.784 262.361 136.387 269.006 139.669C269.19 139.761 269.352 139.496 269.167 139.392C262.817 135.777 256.282 132.444 249.776 129.117C251.254 128.8 252.732 128.512 254.221 128.247C256.935 129.497 259.602 130.838 262.251 132.214C262.401 132.294 262.534 132.07 262.384 131.989C259.844 130.613 257.252 129.358 254.625 128.173C256.657 127.816 258.713 127.516 260.773 127.246C264.099 128.886 267.366 130.625 270.587 132.427C270.604 132.436 270.622 132.442 270.641 132.445C270.661 132.447 270.68 132.446 270.698 132.44C270.717 132.435 270.734 132.427 270.749 132.415C270.764 132.403 270.777 132.389 270.787 132.372C270.796 132.355 270.802 132.337 270.805 132.318C270.807 132.299 270.806 132.28 270.8 132.261C270.795 132.243 270.787 132.226 270.775 132.211C270.763 132.195 270.748 132.183 270.732 132.173C267.689 130.329 264.544 128.659 261.31 127.171C264.63 126.751 267.984 126.428 271.373 126.244H271.673C271.673 126.262 271.679 126.28 271.689 126.296C271.699 126.311 271.714 126.323 271.73 126.33C274.998 127.808 278.187 129.453 281.285 131.258C281.31 131.268 281.338 131.268 281.364 131.259C281.39 131.25 281.412 131.232 281.425 131.209C281.439 131.185 281.444 131.158 281.44 131.131C281.435 131.104 281.421 131.08 281.4 131.062C278.452 129.202 275.364 127.572 272.163 126.187C273.809 126.1 275.448 126.054 277.093 126.014C278.923 127.301 280.853 128.439 282.866 129.416C282.892 129.43 282.922 129.434 282.95 129.427C282.978 129.419 283.002 129.401 283.016 129.376C283.031 129.35 283.035 129.321 283.027 129.293C283.02 129.264 283.001 129.241 282.976 129.226C281.181 128.144 279.368 127.102 277.578 126.008C278.768 126.008 279.963 125.974 281.152 125.974C283.132 127.01 285.1 128.08 287.127 129.013C287.283 129.082 287.415 128.869 287.265 128.783C285.458 127.781 283.588 126.883 281.729 125.979C299.198 126.031 316.592 128.449 333.824 131.247C334.638 131.379 334.978 130.141 334.164 130.009C332.513 112.82 330.864 95.6284 329.217 78.4353L326.792 52.7377C326.152 45.9334 325.736 39.0312 324.801 32.2441C325.667 32.6471 326.429 33.1825 326.406 34.2992C326.407 34.3601 326.424 34.4195 326.455 34.4719C326.486 34.5242 326.53 34.5676 326.583 34.5978C326.636 34.6279 326.696 34.6439 326.757 34.644C326.818 34.6442 326.878 34.6285 326.931 34.5986C327.878 34.0229 328.397 35.3815 328.443 36.0377C328.472 36.504 328.34 36.9588 328.357 37.4251C328.361 37.4702 328.374 37.514 328.396 37.5535C328.419 37.593 328.449 37.6273 328.486 37.654C328.522 37.6807 328.564 37.6993 328.609 37.7085C328.653 37.7177 328.699 37.7172 328.744 37.7072C328.722 37.7658 328.721 37.8304 328.742 37.8895C328.763 37.9485 328.805 37.9981 328.859 38.0295C329.216 38.2304 329.608 38.3613 330.014 38.4152C329.964 39.5167 329.982 40.6201 330.066 41.7195C329.979 41.8922 330.066 42.1398 330.279 42.111H330.354H330.429C331.047 42.3355 331.671 44.9202 332.254 48.4433L332.011 48.2591C331.919 48.1842 331.786 48.3109 331.878 48.3915L332.306 48.7541C332.375 49.2032 332.45 49.6694 332.519 50.1472C332.512 50.1532 332.506 50.1606 332.502 50.1691C332.498 50.1776 332.496 50.1868 332.496 50.1962C332.496 50.2055 332.498 50.2148 332.502 50.2232C332.506 50.2317 332.512 50.2392 332.519 50.2451L332.56 50.2796C332.964 52.9853 333.339 56.0363 333.656 58.9146C333.643 58.9186 333.631 58.926 333.622 58.9359C333.612 58.9458 333.606 58.9579 333.602 58.9712C333.599 58.9844 333.599 58.9984 333.602 59.0116C333.606 59.0249 333.612 59.037 333.622 59.047L333.679 59.1103C333.951 61.5108 334.182 63.7847 334.361 65.621C334.351 65.628 334.343 65.6371 334.338 65.6476C334.333 65.6581 334.33 65.6697 334.33 65.6815C334.33 65.6933 334.333 65.7049 334.338 65.7154C334.343 65.7259 334.351 65.735 334.361 65.7419V65.7419C334.557 67.751 334.701 69.2305 334.759 69.7716C335.529 76.2651 336.298 82.7585 337.068 89.252C337.053 89.255 337.039 89.262 337.027 89.2723C337.016 89.2825 337.007 89.2957 337.003 89.3104C336.998 89.3251 336.997 89.3408 337.001 89.3558C337.004 89.3708 337.011 89.3847 337.022 89.3959L337.091 89.4708C337.328 91.428 337.559 93.3853 337.796 95.3425C339.695 111.144 341.438 127.004 343.568 142.76C343.465 142.656 343.303 142.817 343.407 142.927L343.62 143.146C343.736 143.986 343.846 144.821 343.961 145.655C343.832 145.54 343.667 145.473 343.493 145.465C322.873 144.437 302.236 143.825 281.585 143.629C261.241 143.439 240.788 143.33 220.473 144.521C220.417 144.493 220.356 144.478 220.294 144.478C220.232 144.478 220.17 144.493 220.115 144.521H219.82C218.866 143.487 217.698 142.672 216.397 142.132C216.328 142.104 216.253 142.092 216.184 142.063C215.137 141.252 213.94 140.653 212.662 140.302L212.42 140.169C211.95 139.941 211.456 139.768 210.948 139.651C219.901 135.46 228.393 130.78 237.786 127.505C246.864 124.341 256.218 122.028 265.727 120.597C267.545 120.321 269.375 120.09 271.211 119.877C272.077 120.453 272.943 121.029 273.849 121.558C273.941 121.616 274.022 121.472 273.936 121.409C273.145 120.833 272.325 120.349 271.505 119.843C272.469 119.733 273.433 119.635 274.392 119.543C275.806 120.119 277.197 120.695 278.583 121.328C278.71 121.391 278.82 121.207 278.693 121.138C277.474 120.486 276.203 119.936 274.894 119.492C276.187 119.371 277.486 119.267 278.779 119.175C280.875 120.326 282.988 121.42 285.129 122.456C285.274 122.525 285.401 122.318 285.256 122.237C283.294 121.161 281.296 120.142 279.287 119.146C280.782 119.043 282.278 118.968 283.773 118.904C284.668 119.48 285.562 120.113 286.492 120.631C286.514 120.638 286.538 120.638 286.56 120.629C286.581 120.621 286.6 120.606 286.612 120.586C286.624 120.566 286.629 120.542 286.626 120.519C286.623 120.496 286.612 120.475 286.596 120.459C285.816 119.883 284.991 119.382 284.165 118.876C285.505 118.818 286.844 118.783 288.206 118.76C288.991 119.175 289.782 119.578 290.591 119.912C290.741 119.981 290.873 119.774 290.723 119.687C290.146 119.348 289.54 119.031 288.939 118.726C302.253 118.568 315.549 119.725 328.634 122.18C329.431 122.324 329.789 121.109 328.969 120.96H328.9C328.9 120.902 328.865 120.85 328.842 120.793C328.854 120.753 328.854 120.711 328.842 120.672C328.797 120.478 328.713 120.296 328.594 120.136C327.847 117.708 327.428 115.191 327.347 112.653C327.347 112.636 327.343 112.62 327.334 112.606C327.326 112.592 327.315 112.58 327.3 112.572C325.984 98.6353 324.57 84.7043 323.207 70.7732C322.388 62.4261 321.576 54.0809 320.771 45.7377C320.194 39.722 319.842 33.5969 319.068 27.564C319.845 27.4566 320.63 27.4315 321.412 27.4892V27.4892ZM215.855 149.478L215.15 150.33L214.134 150.652C214.123 150.622 214.11 150.593 214.094 150.566C214.694 150.22 215.277 149.852 215.855 149.478ZM317.579 21.3065C317.579 29.6364 318.895 38.0526 319.703 46.3421C320.511 54.6316 321.343 63.0363 322.151 71.3777C323.744 87.7956 325.268 104.231 326.966 120.643C313.596 118.254 300.018 117.216 286.44 117.546H286.382C286.359 117.527 286.331 117.517 286.301 117.517C286.272 117.517 286.243 117.527 286.22 117.546C279.584 117.733 272.965 118.309 266.396 119.273C256.549 120.744 246.867 123.16 237.486 126.486C228.284 129.733 218.435 133.601 210.451 139.277C210.41 139.306 210.376 139.345 210.355 139.39C210.334 139.436 210.325 139.486 210.33 139.536C208.952 139.352 207.56 139.305 206.173 139.398V138.984C210.907 134.079 215.37 128.961 220.305 124.293C221.426 124.841 222.478 125.519 223.44 126.313C223.608 126.457 223.862 126.21 223.683 126.066C222.706 125.289 221.643 124.628 220.513 124.097C221.221 123.437 221.941 122.782 222.672 122.134C225.208 124.268 228.049 126.015 231.101 127.315C231.332 127.413 231.539 127.09 231.309 126.964C228.422 125.404 225.686 123.677 222.938 121.886C223.869 121.077 224.82 120.286 225.79 119.515C227.289 120.533 228.84 121.472 230.437 122.33C230.479 122.345 230.525 122.346 230.567 122.331C230.609 122.316 230.645 122.287 230.668 122.248C230.691 122.21 230.699 122.164 230.692 122.12C230.684 122.076 230.661 122.036 230.627 122.007C229.148 121.029 227.62 120.126 226.049 119.302C226.096 119.267 226.13 119.233 226.176 119.204C226.95 118.594 227.747 118.012 228.549 117.442C231.62 119.492 234.853 121.472 238.115 123.199C238.168 123.22 238.226 123.222 238.28 123.203C238.334 123.185 238.379 123.148 238.408 123.099C238.436 123.05 238.446 122.993 238.436 122.937C238.426 122.881 238.396 122.831 238.352 122.796C235.309 120.781 232.065 118.91 228.844 117.2C229.733 116.575 230.635 115.97 231.551 115.387C233.618 116.446 235.638 117.552 237.653 118.714C237.855 118.835 238.028 118.53 237.832 118.404C235.908 117.202 233.902 116.136 231.828 115.214C232.913 114.529 234.016 113.89 235.136 113.269C235.126 113.286 235.12 113.306 235.119 113.326C235.117 113.346 235.119 113.366 235.126 113.385C235.132 113.404 235.143 113.421 235.157 113.436C235.17 113.45 235.187 113.462 235.205 113.47C238.057 114.878 240.774 116.543 243.322 118.444C243.484 118.559 243.697 118.294 243.541 118.162C241.057 116.142 238.314 114.462 235.384 113.165H235.338C236.816 112.348 238.328 111.582 239.858 110.862C241.936 112.198 244.061 113.499 246.208 114.696C246.248 114.713 246.293 114.714 246.334 114.7C246.375 114.687 246.409 114.658 246.431 114.621C246.453 114.584 246.46 114.54 246.452 114.498C246.444 114.456 246.421 114.418 246.387 114.391C244.361 113.096 242.254 111.887 240.141 110.73C244.086 108.902 248.173 107.394 252.362 106.223C257.332 104.843 262.406 103.869 267.534 103.31C271.269 106.246 275.009 109.158 278.704 112.146C278.86 112.273 279.091 112.054 278.935 111.916C275.425 108.882 271.765 105.963 267.967 103.281C271.038 102.953 274.115 102.757 277.203 102.671C277.191 102.693 277.188 102.718 277.193 102.742C277.198 102.767 277.212 102.788 277.232 102.803C279.229 104.565 281.227 106.326 283.259 108.053C283.409 108.18 283.628 107.967 283.478 107.834C281.504 106.107 279.495 104.38 277.486 102.653C279.218 102.607 280.95 102.596 282.682 102.607L282.895 102.803C282.884 102.814 282.875 102.827 282.869 102.841C282.862 102.856 282.859 102.871 282.859 102.887C282.859 102.902 282.862 102.918 282.869 102.932C282.875 102.946 282.884 102.959 282.895 102.97C286.867 106.234 290.816 109.527 294.874 112.676C295.053 112.814 295.301 112.578 295.128 112.428C291.335 109.239 287.427 106.182 283.542 103.108C283.686 103.108 283.802 102.936 283.652 102.855L283.201 102.613C284.564 102.613 285.926 102.671 287.288 102.717C289.828 104.662 292.305 106.66 294.735 108.744C294.891 108.882 295.122 108.658 294.966 108.519C292.724 106.455 290.354 104.533 287.871 102.763C289.678 102.832 291.491 102.936 293.298 103.051C296.3 105.543 299.279 108.07 302.373 110.448C302.5 110.546 302.673 110.327 302.546 110.218C299.746 107.714 296.773 105.376 293.783 103.079C296.629 103.269 299.475 103.517 302.327 103.787C303.655 104.841 304.982 105.889 306.327 106.925C306.426 107 306.553 106.827 306.46 106.752C305.225 105.762 303.978 104.795 302.725 103.828C306.495 104.185 310.265 104.593 314.034 105.014C314.11 105.022 314.187 105.016 314.26 104.995C314.334 104.974 314.402 104.939 314.462 104.891C314.522 104.843 314.571 104.784 314.608 104.717C314.644 104.651 314.667 104.577 314.675 104.501C314.791 104.476 314.892 104.408 314.959 104.311C315.025 104.213 315.052 104.094 315.033 103.977C314.729 101.138 314.421 98.2976 314.109 95.4576C315.861 96.7057 317.466 98.1462 318.895 99.7521C319.034 99.9075 319.253 99.683 319.12 99.5276C317.661 97.7932 315.958 96.2789 314.063 95.0317L313.63 91.002C317.094 93.3968 320.506 95.8894 323.918 98.382C324.062 98.4914 324.252 98.2438 324.114 98.1287C320.768 95.4291 317.261 92.9338 313.613 90.6566C313.422 88.8951 313.238 87.1336 313.036 85.372C314.548 86.4888 316.032 87.6401 317.515 88.7915C317.665 88.9066 317.879 88.7051 317.729 88.5785C316.216 87.3103 314.636 86.1246 312.995 85.0266C312.81 83.2997 312.631 81.6014 312.452 79.8917C314.941 81.9066 317.359 83.9847 319.813 86.0456C319.957 86.1665 320.159 85.965 320.021 85.8326C317.614 83.5718 315.073 81.4572 312.412 79.5003C312.27 78.1686 312.129 76.8369 311.991 75.5052C313.099 76.3284 314.213 77.1458 315.351 77.9345C315.512 78.0438 315.651 77.7906 315.501 77.6812C314.346 76.8062 313.145 75.9542 311.95 75.131C311.812 73.7993 311.677 72.4695 311.546 71.1417C312.499 71.9821 313.451 72.8168 314.433 73.5997C314.56 73.7034 314.75 73.5307 314.617 73.4155C313.613 72.506 312.551 71.6482 311.494 70.802C310.917 65.2238 310.34 59.6399 309.855 54.056C308.844 42.9112 308.186 31.7433 307.424 20.587C310.824 20.5386 314.221 20.7793 317.579 21.3065V21.3065ZM204.043 37.6035L204.141 37.7647C204.179 37.8316 204.23 37.8904 204.291 37.9378C204.351 37.9851 204.421 38.0201 204.495 38.0407C204.569 38.0613 204.647 38.0671 204.723 38.0577C204.8 38.0484 204.874 38.0242 204.941 37.9864C205.008 37.9486 205.067 37.898 205.114 37.8374C205.162 37.7769 205.197 37.7077 205.218 37.6336C205.238 37.5596 205.244 37.4822 205.235 37.4059C205.225 37.3297 205.201 37.256 205.163 37.1891C205.094 37.0682 205.019 36.9473 204.955 36.8206C211.225 31.1216 217.171 25.3074 224.271 20.5582C231.579 15.6226 239.486 11.6321 247.802 8.68226C266.336 2.22406 286.303 1.01454 305.485 5.18798H305.531C305.571 10.1962 305.762 15.216 306.05 20.2358C306.011 20.2839 305.99 20.3438 305.99 20.4056C305.99 20.4674 306.011 20.5273 306.05 20.5754C306.685 31.7663 307.84 42.9572 308.879 54.056C310.419 70.5967 312.083 87.1259 313.873 103.644C293.517 100.028 271.523 99.1879 251.525 105.088C232.827 110.609 218.216 122.865 206.162 137.757C206.208 121.316 205.307 104.818 204.955 88.3828C204.771 79.9896 204.649 71.5907 204.528 63.1918C204.407 54.7007 204.638 46.0946 203.951 37.6208L204.043 37.6035ZM94.5139 18.4743C94.5199 18.4381 94.5199 18.4011 94.5139 18.3649C95.5593 17.6969 96.697 17.1849 97.891 16.8452C99.2361 16.4825 100.512 16.5803 101.834 16.517C100.431 29.7055 99.4381 42.9515 98.2143 56.1456C96.6152 73.1737 94.4504 90.2652 93.6826 107.38C93.6826 107.65 94.1213 107.719 94.1559 107.443C96.5748 90.6566 97.6485 73.617 99.2534 56.7386C100.887 39.5032 103 22.2506 104.016 4.96923C109.212 4.15755 114.355 2.82201 119.603 2.16575C124.691 1.52041 129.818 1.22229 134.947 1.27348C144.835 1.31331 154.653 2.92626 164.031 6.05148C180.286 11.507 194.189 22.3286 203.443 36.7285C203.41 36.7721 203.39 36.8239 203.385 36.8782C202.808 45.4153 203.206 54.0905 203.298 62.6449C203.391 71.1992 203.529 79.8169 203.651 88.4058C203.893 105.353 203.737 122.45 204.805 139.369C204.71 139.384 204.619 139.419 204.54 139.473C192.613 124.206 175.612 113.959 157.202 108.387C147.162 105.387 136.804 103.573 126.34 102.982C115.741 102.343 104.894 103.12 94.9122 106.959C94.4908 107.121 94.6524 107.794 95.1027 107.65C97.7697 106.815 100.481 106.129 103.225 105.595L106.989 107.656C107.151 107.742 107.301 107.495 107.139 107.408L103.6 105.468C104.876 105.221 106.158 105.014 107.439 104.829C109.91 106.102 112.393 107.357 114.892 108.565C115.013 108.623 115.123 108.445 114.996 108.381C112.618 107.149 110.224 105.948 107.815 104.778C109.379 104.559 110.949 104.398 112.52 104.271C113.466 104.945 114.407 105.612 115.36 106.28C115.475 106.361 115.579 106.171 115.469 106.09C114.604 105.468 113.734 104.852 112.86 104.242C114.015 104.144 115.169 104.087 116.324 104.035C119.303 105.635 122.293 107.207 125.307 108.727C125.416 108.778 125.509 108.623 125.405 108.565C122.518 107.005 119.632 105.503 116.682 104.024C118.321 103.962 119.963 103.939 121.606 103.954C123.081 104.899 124.607 105.76 126.178 106.533C126.311 106.602 126.432 106.407 126.299 106.332C124.883 105.564 123.49 104.776 122.12 103.966C123.852 103.995 125.584 104.07 127.315 104.179C129.492 105.434 131.674 106.683 133.874 107.886C133.903 107.897 133.935 107.897 133.964 107.887C133.994 107.876 134.018 107.856 134.034 107.829C134.05 107.803 134.056 107.771 134.051 107.74C134.046 107.71 134.03 107.682 134.006 107.662C131.963 106.51 129.902 105.359 127.835 104.208C129.671 104.334 131.501 104.519 133.325 104.732C135.982 106.449 138.724 108.032 141.54 109.475C141.707 109.556 141.852 109.314 141.684 109.227C139.098 107.806 136.546 106.32 134.006 104.812C136.223 105.085 138.428 105.415 140.622 105.802C142.492 106.902 144.374 107.99 146.285 109.02C146.323 109.042 146.367 109.047 146.409 109.036C146.451 109.025 146.486 108.997 146.508 108.96C146.529 108.922 146.535 108.878 146.523 108.836C146.512 108.795 146.484 108.76 146.447 108.738C144.854 107.788 143.243 106.879 141.615 105.981C146.411 106.875 151.159 108.01 155.839 109.383C174.255 114.719 191.429 124.73 203.322 139.933C202.992 139.974 202.663 140.014 202.334 140.066L200.891 139.45C200.93 139.31 200.924 139.162 200.874 139.026C200.825 138.889 200.734 138.772 200.614 138.69C183.723 126.653 163.921 118.622 143.584 114.76C133.592 112.85 123.43 111.978 113.258 112.158C103.375 112.348 92.857 113.355 84.394 118.916C84.3524 118.942 84.3166 118.977 84.2888 119.017C84.2611 119.058 84.2418 119.104 84.2323 119.152C85.6467 111.242 86.0796 103.125 86.8936 95.141C87.7711 86.5579 88.6255 77.9748 89.5088 69.3974C91.2695 52.4326 93.036 35.4678 94.5139 18.4743ZM79.0021 41.8059C79.0081 41.7621 79.004 41.7175 78.99 41.6756C78.9759 41.6337 78.9524 41.5955 78.9212 41.5641C79.8253 39.9489 80.8238 38.3881 81.9116 36.8897C82.9102 35.668 84.0762 34.5925 85.3754 33.6948C83.5396 47.7007 82.4139 61.8505 80.9244 75.8736C79.1233 92.6887 76.9238 109.515 75.7346 126.365C75.7 126.912 76.5024 126.877 76.5717 126.365C78.7942 109.803 80.0354 93.0629 81.8019 76.4378C83.5338 59.9393 85.843 43.4005 86.9975 26.8502C87.052 26.887 87.1164 26.9068 87.1823 26.9068C87.2481 26.9068 87.3125 26.887 87.367 26.8502C88.1503 26.3644 89.0056 26.005 89.9013 25.7852C90.8029 25.6568 91.7104 25.5742 92.6203 25.5377V25.5377C91.1309 39.9292 89.7685 54.3841 88.3715 68.816C87.5633 77.2091 86.7031 85.5965 85.8545 93.9839C85.0059 102.371 83.7301 110.765 83.5049 119.169C83.5049 119.566 84.1457 119.676 84.2208 119.267V119.163C84.2081 119.231 84.2148 119.3 84.2401 119.364C84.2655 119.428 84.3085 119.483 84.3641 119.524C84.4197 119.564 84.4856 119.588 84.5543 119.592C84.6229 119.597 84.6914 119.582 84.7519 119.549C89.6684 116.938 94.9967 115.186 100.506 114.368C101.515 115.375 102.725 116.159 104.056 116.671C104.178 116.723 104.282 116.556 104.16 116.498C102.97 115.861 101.823 115.147 100.726 114.362C101.776 114.194 102.833 114.05 103.895 113.931C105.425 114.673 110.747 117.96 111.278 118.254C111.292 118.262 111.306 118.267 111.322 118.269C111.337 118.272 111.353 118.271 111.368 118.267C111.383 118.263 111.397 118.257 111.409 118.248C111.422 118.238 111.432 118.227 111.44 118.214C111.448 118.2 111.453 118.186 111.456 118.17C111.458 118.155 111.457 118.14 111.453 118.125C111.45 118.11 111.443 118.096 111.434 118.083C111.424 118.071 111.413 118.06 111.4 118.052C109.627 116.964 107.832 115.917 106.042 114.875C105.667 114.656 105.107 114.172 104.547 113.862C106.406 113.666 108.276 113.539 110.158 113.459C111.723 114.403 113.299 115.33 114.892 116.222C114.914 116.235 114.939 116.239 114.964 116.233C114.988 116.227 115.009 116.212 115.022 116.19C115.035 116.169 115.039 116.143 115.033 116.119C115.027 116.095 115.012 116.074 114.99 116.061C113.524 115.166 112.048 114.295 110.563 113.447C111.844 113.401 113.137 113.372 114.425 113.361C117.917 115.514 121.433 117.661 125.006 119.693C125.031 119.704 125.058 119.707 125.084 119.699C125.11 119.692 125.132 119.675 125.146 119.652C125.16 119.629 125.166 119.602 125.161 119.576C125.157 119.549 125.143 119.526 125.122 119.509C121.75 117.385 118.298 115.37 114.846 113.378H115.227C117.161 113.378 119.095 113.424 121.029 113.499C123.251 115.042 125.48 116.59 127.743 118.104C127.881 118.196 128.002 117.978 127.87 117.885C125.763 116.4 123.621 114.973 121.479 113.545C123.211 113.614 124.989 113.729 126.744 113.862C130.5 116.419 134.445 118.689 138.544 120.654C138.711 120.735 138.861 120.493 138.694 120.401C134.832 118.386 131.068 116.239 127.396 113.913C129.746 114.103 132.095 114.357 134.428 114.662C136.546 115.992 138.665 117.321 140.778 118.611C140.807 118.625 140.84 118.628 140.871 118.619C140.902 118.609 140.928 118.589 140.944 118.561C140.96 118.533 140.965 118.5 140.958 118.469C140.951 118.437 140.932 118.41 140.905 118.392C138.948 117.154 136.974 115.945 134.993 114.742C137.249 115.046 139.498 115.402 141.742 115.813C143.93 117.005 146.083 118.254 148.231 119.509C148.249 119.519 148.268 119.526 148.289 119.529C148.309 119.532 148.33 119.531 148.35 119.526C148.37 119.521 148.389 119.512 148.406 119.5C148.423 119.487 148.437 119.472 148.447 119.454C148.458 119.436 148.465 119.417 148.468 119.396C148.471 119.376 148.47 119.355 148.465 119.335C148.46 119.315 148.451 119.296 148.438 119.279C148.426 119.263 148.41 119.249 148.392 119.238C146.562 118.087 144.68 116.999 142.758 115.997C143.555 116.153 144.351 116.308 145.148 116.475C163.714 120.326 181.125 127.798 197 138.034C189.184 135.207 180.992 133.284 172.933 131.454C161.964 128.955 150.892 126.572 139.739 124.909C129.14 123.236 118.418 122.454 107.688 122.571C97.4119 122.767 86.478 123.677 76.7045 127.038C76.6111 127.064 76.5318 127.126 76.4842 127.211C76.4366 127.295 76.4244 127.394 76.4504 127.488C76.4765 127.581 76.5385 127.66 76.623 127.707C76.7074 127.755 76.8073 127.767 76.9007 127.741C83.401 126.434 89.8147 125.265 96.3035 124.523C97.6865 125.663 99.2213 126.606 100.864 127.326C101.003 127.384 101.13 127.182 100.985 127.113C99.4469 126.368 97.9768 125.49 96.5921 124.488C98.0411 124.327 99.4786 124.195 100.956 124.08C103.266 125.478 105.54 126.866 107.884 128.224C107.897 128.232 107.912 128.238 107.927 128.24C107.942 128.242 107.958 128.241 107.973 128.238C107.988 128.234 108.002 128.227 108.015 128.218C108.027 128.209 108.038 128.197 108.046 128.184C108.054 128.171 108.059 128.156 108.061 128.141C108.063 128.126 108.063 128.11 108.059 128.095C108.055 128.08 108.048 128.066 108.039 128.054C108.03 128.041 108.018 128.031 108.005 128.023C105.788 126.676 103.56 125.352 101.32 124.051C102.856 123.936 104.397 123.844 105.938 123.786C109.281 126.221 112.687 128.57 116.237 130.694C116.265 130.703 116.295 130.703 116.322 130.693C116.349 130.683 116.372 130.664 116.387 130.639C116.402 130.614 116.408 130.585 116.404 130.556C116.4 130.527 116.386 130.501 116.364 130.481C113.01 128.253 109.639 126.06 106.325 123.774C107.145 123.746 107.965 123.728 108.784 123.717C109.604 123.705 110.355 123.717 111.14 123.717C113.321 125.327 115.621 126.77 118.021 128.034C118.165 128.115 118.298 127.89 118.148 127.81C115.88 126.531 113.682 125.134 111.561 123.625C113.114 123.625 114.667 123.677 116.22 123.734C118.673 125.058 121.069 126.486 123.436 127.96C123.592 128.057 123.725 127.821 123.58 127.724C121.395 126.276 119.126 124.958 116.786 123.774C119.141 123.867 121.496 124.011 123.84 124.189C126.841 126.221 129.957 128.075 133.175 129.744C133.209 129.762 133.249 129.767 133.287 129.756C133.324 129.745 133.356 129.721 133.376 129.687C133.395 129.653 133.401 129.613 133.391 129.576C133.382 129.538 133.358 129.506 133.325 129.485C130.335 127.758 127.373 126.031 124.441 124.241C130.029 124.69 135.6 125.392 141.13 126.25C160.256 129.261 179.555 133.428 197.843 139.922C177.118 136.312 156.088 134.597 135.086 133.693C124.002 133.217 112.906 132.931 101.799 132.835C91.1887 132.761 80.5319 133.02 70.0483 134.896C71.7802 128.017 72.19 120.77 72.5884 113.718C73.0444 105.699 73.4716 97.6855 74.0778 89.6722C75.319 73.6515 77.3164 57.7575 79.0021 41.8059ZM190.858 143.767C191.066 143.928 191.279 144.113 191.499 144.291C191.45 144.702 191.45 145.118 191.499 145.529C191.071 145.109 190.598 144.717 190.165 144.326C189.628 143.836 189.086 143.353 188.543 142.875L189.594 142.789L190.858 143.767ZM189.934 142.76C190.61 142.702 191.285 142.656 191.966 142.593C191.781 143.011 191.645 143.45 191.562 143.9L191.175 143.635L189.934 142.76ZM189.934 144.567C190.463 145.129 191.024 145.66 191.614 146.156C191.772 146.792 192.031 147.398 192.382 147.952C190.436 146.34 188.502 144.706 186.609 143.019L188.254 142.886C188.78 143.456 189.345 144.015 189.911 144.567H189.934ZM132.534 143.831C110.793 143.957 88.614 143.37 67.1676 147.572C67.1163 147.585 67.068 147.608 67.0257 147.64C66.9834 147.671 66.948 147.711 66.9216 147.757C66.8952 147.803 66.8783 147.853 66.872 147.906C66.8656 147.958 66.87 148.011 66.8847 148.062L66.752 147.993C66.8284 147.929 66.8778 147.838 66.8905 147.739C68.9284 131.414 70.4928 115.047 71.8668 98.6526C72.5422 90.5472 73.131 82.4362 73.6852 74.3251C74.2336 66.3176 75.0707 58.2353 75.1111 50.199C75.1932 50.262 75.2969 50.29 75.3996 50.2771C75.5023 50.2641 75.5958 50.2113 75.6596 50.13C76.208 49.468 76.768 48.8347 77.2991 48.1612C75.394 61.3554 74.2279 74.6935 73.2003 87.9625C71.988 103.684 71.6993 119.428 69.3267 135.034C68.8648 135.219 69.1189 135.967 69.6557 135.886C75.1689 135.092 80.7166 134.574 86.2817 134.263C86.2817 134.263 86.2817 134.303 86.2817 134.326C86.2825 134.334 86.285 134.341 86.2889 134.348C86.2929 134.354 86.2982 134.36 86.3045 134.364C86.3109 134.368 86.318 134.371 86.3255 134.372C86.333 134.373 86.3407 134.373 86.348 134.37C86.3553 134.368 86.362 134.365 86.3677 134.36C86.3734 134.355 86.3779 134.348 86.381 134.341C86.384 134.334 86.3855 134.327 86.3853 134.319C86.3851 134.312 86.3832 134.304 86.3798 134.298C86.383 134.284 86.383 134.271 86.3798 134.257L87.1419 134.217C87.2689 134.298 87.3843 134.372 87.4709 134.419C88.0482 134.729 88.6659 135.052 89.2547 135.374C90.4363 136.023 91.6139 136.683 92.7878 137.354C92.8107 137.367 92.8379 137.371 92.8634 137.364C92.8888 137.357 92.9104 137.34 92.9234 137.317C92.9364 137.294 92.9398 137.267 92.9328 137.242C92.9257 137.216 92.9089 137.195 92.8859 137.182C91.161 136.099 89.3826 135.104 87.5575 134.2C88.9661 134.125 90.3805 134.073 91.789 134.021C93.3997 135.063 95.0046 136.105 96.6267 137.124C96.7307 137.187 96.8288 137.026 96.7249 136.957C95.1835 135.967 93.6306 134.988 92.1066 134.016C93.8384 133.958 95.5126 133.923 97.2214 133.895C99.975 135.409 102.729 136.917 105.454 138.5C105.466 138.507 105.48 138.512 105.494 138.514C105.508 138.516 105.523 138.515 105.537 138.511C105.551 138.507 105.564 138.501 105.575 138.492C105.587 138.483 105.596 138.472 105.604 138.46C105.611 138.447 105.615 138.433 105.617 138.419C105.619 138.405 105.618 138.39 105.614 138.376C105.611 138.363 105.604 138.35 105.595 138.338C105.587 138.327 105.576 138.317 105.563 138.31C102.937 136.756 100.264 135.276 97.5331 133.912C99.5767 133.912 101.62 133.912 103.67 133.912C105.315 134.781 106.954 135.639 108.611 136.491C108.75 136.56 108.865 136.358 108.733 136.289C107.22 135.478 105.696 134.701 104.166 133.918C114.511 133.981 124.862 134.465 135.115 134.908C155.58 135.8 175.981 137.59 196.163 141.05C174.93 142.437 153.778 143.704 132.511 143.831H132.534ZM169.527 144.09C171.138 145.465 172.742 146.922 174.474 148.119L172.742 148.09C171.086 146.697 169.279 145.442 167.547 144.182L169.527 144.09ZM74.5454 50.3545C73.3446 49.5831 72.1208 48.8405 70.9027 48.0979C70.9027 47.6949 70.9027 47.2977 70.9027 46.8947C72.1064 47.8109 73.3611 48.6585 74.6608 49.4334C74.6147 49.7385 74.58 50.0494 74.5454 50.3545ZM77.7089 45.2771C77.6166 45.8528 77.5184 46.4803 77.4318 47.0847C76.7045 46.676 75.9251 46.3421 75.1515 46.0025C76.0215 45.8268 76.8765 45.5843 77.7089 45.2771V45.2771ZM74.6435 46.1003C75.4864 46.5609 76.3408 47.0559 77.224 47.4359C76.9411 47.7525 76.6467 48.0633 76.3292 48.3569C76.3352 48.318 76.3297 48.2782 76.3133 48.2424C76.2969 48.2066 76.2703 48.1764 76.2368 48.1554C75.2555 47.4819 74.2106 46.8832 73.1772 46.2845C73.6691 46.2512 74.1587 46.1897 74.6435 46.1003ZM71.1798 46.1982C71.6605 46.277 72.1475 46.3117 72.6346 46.3018C73.7603 47.0617 74.8802 47.8503 76.0521 48.5181C76.0827 48.5232 76.1139 48.5232 76.1445 48.5181C75.8689 48.7701 75.5778 49.0047 75.2728 49.2204C73.8839 48.1992 72.4277 47.2722 70.9142 46.4457C70.9142 46.2673 70.9142 46.0888 70.9142 45.9104C70.9233 45.9754 70.9502 46.0367 70.992 46.0875C71.0337 46.1383 71.0887 46.1766 71.1509 46.1982H71.1798ZM70.92 48.5008C72.0746 49.278 73.2638 50.0666 74.4588 50.8035H74.5165C74.4819 51.1201 74.4357 51.4367 74.4068 51.7533C73.3052 50.9463 72.1346 50.2374 70.9085 49.6349C70.8911 49.255 70.8969 48.8635 70.8969 48.4778L70.92 48.5008ZM70.92 50.0494C71.9774 50.8337 73.1084 51.5143 74.2972 52.0815C74.3273 52.0901 74.3593 52.0901 74.3895 52.0815L74.3029 52.9507C73.7891 52.5938 73.2176 52.306 72.6807 52.0009L70.9027 50.9647C70.868 50.6653 70.868 50.3314 70.8796 50.0263L70.92 50.0494ZM70.8854 51.3043L72.496 52.3232C73.0514 52.7142 73.6297 53.0718 74.2279 53.394L74.124 54.482C73.5467 54.1538 72.9694 53.843 72.3921 53.5264C71.8148 53.2098 71.3645 52.9507 70.8276 52.7032C70.8276 52.2235 70.8334 51.7495 70.845 51.2813L70.8854 51.3043ZM70.8219 53.0313C71.2721 53.3249 71.7571 53.607 72.2131 53.8545C72.8424 54.2229 73.4659 54.6029 74.1124 54.9483L74.0431 55.6621C72.9347 55.0864 71.8437 54.5108 70.7815 53.843C70.7584 53.5436 70.7699 53.2673 70.7815 52.9968L70.8219 53.0313ZM70.7641 54.1826C71.7725 54.9391 72.858 55.5874 74.0027 56.1169C74.0027 56.3414 73.9623 56.5659 73.945 56.7904C72.9059 56.1053 71.809 55.4894 70.7295 54.8677C70.7064 54.6086 70.7122 54.3784 70.7237 54.1481L70.7641 54.1826ZM70.7122 55.19C71.7282 55.8463 72.7731 56.5889 73.87 57.2164C73.8411 57.579 73.8065 57.9475 73.7834 58.3159C72.7904 57.5445 71.6647 56.894 70.6083 56.2147C70.6314 55.8463 70.6487 55.5067 70.6718 55.1555L70.7122 55.19ZM70.5736 56.5429C71.5841 57.3503 72.6382 58.1017 73.7314 58.7937C73.7314 59.047 73.691 59.306 73.6737 59.5593C73.2118 59.2657 72.6923 59.0527 72.2247 58.7649C71.619 58.3955 71.0403 57.9838 70.4928 57.533C70.5736 57.1991 70.5736 56.871 70.5736 56.5429ZM70.487 57.8036C70.9238 58.1861 71.3805 58.5454 71.8552 58.88C72.4023 59.3057 73.0067 59.6526 73.6506 59.9105C73.6217 60.3134 73.5929 60.7106 73.5698 61.1136C73.1426 60.8776 72.6981 60.6646 72.2882 60.4228C71.6358 60.0314 71.0124 59.6054 70.3889 59.1851C70.4409 58.7246 70.4697 58.2641 70.5044 57.8036H70.487ZM70.3658 59.4442C70.888 59.8746 71.4334 60.2762 71.9995 60.6473C72.4899 60.9887 73.0029 61.2964 73.5351 61.5684C73.5351 61.9713 73.4832 62.3686 73.4601 62.7715C73.0675 62.5355 72.6403 62.3455 72.242 62.1325L70.285 61.1079C70.2661 61.1024 70.2461 61.1024 70.2273 61.1079L70.3658 59.4442ZM70.2042 61.3324L72.0746 62.4204C72.5222 62.7055 72.9847 62.9669 73.4601 63.2033L73.4081 64.0955C72.4022 63.3753 71.3031 62.7944 70.1407 62.3686C70.1638 62.0347 70.1926 61.6835 70.2215 61.3324H70.2042ZM70.0887 62.6391C70.6822 62.9062 71.2604 63.2061 71.8206 63.5372C72.3401 63.8595 72.8251 64.251 73.3504 64.5676L73.2984 65.4714C72.8042 65.1157 72.2786 64.8055 71.7282 64.5446C71.1509 64.2279 70.5736 63.8998 69.9963 63.6177L70.0887 62.6391ZM69.9732 63.9401C70.4813 64.2682 71.0066 64.5733 71.5262 64.8784C72.0637 65.2624 72.645 65.5812 73.258 65.8283C73.258 66.1622 73.2176 66.4903 73.2003 66.8242C72.1424 66.0938 71.0243 65.4545 69.8578 64.913C69.9271 64.5906 69.9559 64.2682 69.9963 63.9401H69.9732ZM69.852 65.2123C70.4697 65.5577 71.0816 65.9089 71.6763 66.2946C72.1843 66.6169 72.675 67.0142 73.1945 67.3423C73.1945 67.6128 73.1657 67.8834 73.1483 68.1482C72.0642 67.4427 70.9297 66.8174 69.7539 66.2773C69.8001 65.9204 69.8347 65.5692 69.8693 65.2123H69.852ZM69.7192 66.5997C70.7944 67.3577 71.9341 68.0203 73.1253 68.58C73.0964 69.0405 73.0733 69.5068 73.0444 69.9673C72.4671 69.6104 71.7744 69.3916 71.1682 69.0232C70.624 68.7126 70.096 68.3745 69.5865 68.01C69.65 67.5438 69.6904 67.0717 69.7366 66.5997H69.7192ZM69.5576 68.3267C70.5743 69.2061 71.7499 69.8841 73.0213 70.3242C72.9925 70.7387 72.9694 71.1589 72.9463 71.5734C72.369 71.1762 71.6647 70.8711 71.0528 70.4854C70.4409 70.0997 69.9732 69.7773 69.4479 69.3974L69.5576 68.3267ZM69.4479 69.6622C70.4857 70.573 71.6529 71.3257 72.9117 71.8958V71.8958C72.8828 72.4369 72.8482 72.978 72.8135 73.5191C71.6936 72.7075 70.4582 72.0109 69.2574 71.3086L69.4479 69.6622ZM69.269 71.5964C70.4107 72.426 71.5958 73.1947 72.8193 73.8991C72.8193 74.0372 72.8193 74.1754 72.8193 74.3136L72.75 75.2346C72.2354 74.883 71.7015 74.5601 71.1509 74.2675C70.487 73.8473 69.8232 73.404 69.1189 73.0471C69.1824 72.5405 69.2228 72.0685 69.269 71.5849V71.5964ZM69.09 73.6918L69.1246 73.2716C69.7019 73.7091 70.2792 74.0948 70.8565 74.4863C71.439 74.9118 72.0505 75.2965 72.6865 75.6376C72.6865 75.9945 72.6403 76.3572 72.6115 76.7141C71.3405 76.0853 70.1324 75.3374 69.0034 74.4805C69.038 74.2042 69.0669 73.9336 69.09 73.6918ZM68.9919 74.7683C70.0907 75.6966 71.3007 76.4855 72.5941 77.117C72.5941 77.4739 72.5422 77.8366 72.5191 78.1935C71.8783 77.7906 71.1971 77.4394 70.539 77.0767C70.005 76.7447 69.4451 76.456 68.8649 76.2132C68.911 75.7009 68.9514 75.2173 68.9919 74.7395V74.7683ZM68.836 76.5529C69.3176 76.8739 69.8168 77.1679 70.3312 77.4336C71.0355 77.8424 71.7455 78.2799 72.4845 78.6368L72.4498 79.1664C71.2952 78.3777 70.0194 77.6754 68.8013 76.9731L68.836 76.5529ZM68.6455 78.7346L70.0714 79.673C70.6841 80.1275 71.3328 80.5318 72.0111 80.8819C72.1612 80.9452 72.3459 80.761 72.2016 80.6343C71.6271 80.2001 71.0168 79.8149 70.3773 79.483C69.8001 79.1376 69.2228 78.7922 68.6455 78.4526C68.6801 78.0842 68.7148 77.71 68.7436 77.3358C69.9328 78.1475 71.1451 78.9879 72.3863 79.7018L72.1958 82.3325C71.6936 81.9065 71.0759 81.5899 70.5332 81.21C69.842 80.7137 69.179 80.1794 68.5473 79.6096C68.5935 79.27 68.6166 78.9879 68.6455 78.7059V78.7346ZM68.5416 79.886C69.1113 80.4416 69.7106 80.9662 70.3369 81.4575C70.8825 81.9454 71.4996 82.3472 72.1669 82.6491V82.6491C72.1669 82.9888 72.115 83.3342 72.0919 83.6796C70.9308 82.7366 69.6974 81.8859 68.403 81.1352C68.4723 80.6977 68.5012 80.2774 68.5416 79.8629V79.886ZM68.403 81.4575C69.5524 82.431 70.787 83.2999 72.0919 84.0538C72.063 84.3992 72.0399 84.7388 72.0169 85.0842C70.8049 84.303 69.5523 83.5863 68.2645 82.937L68.403 81.4575ZM67.97 86.1204C69.02 87.0847 70.2392 87.8477 71.5666 88.3712C71.6993 88.4115 71.8263 88.2216 71.7109 88.1295C71.0403 87.673 70.3424 87.2577 69.6211 86.886C69.0438 86.5464 68.53 86.1837 67.9989 85.8038C67.9989 85.5793 68.0393 85.349 68.0624 85.1245C68.5935 85.4584 69.1246 85.7865 69.65 86.1262C70.2316 86.5847 70.8606 86.9803 71.5262 87.3063C71.6763 87.3638 71.7686 87.1508 71.6763 87.0472C71.1182 86.5579 70.4969 86.1456 69.8289 85.8211C69.2516 85.4872 68.6743 85.1648 68.0971 84.8539C68.149 84.3531 68.1894 83.8523 68.2414 83.3457C69.4364 84.2074 70.6881 84.9883 71.988 85.6829L71.7282 89.2808C70.5017 88.4146 69.2192 87.63 67.8892 86.9321C67.9181 86.6558 67.9412 86.3564 67.97 86.0974V86.1204ZM67.8661 87.1911C69.0676 88.1382 70.3437 88.9872 71.682 89.7298C71.6532 90.1616 71.6185 90.5875 71.5897 91.0135C71.0124 90.6278 70.3369 90.317 69.7366 89.937C69.0479 89.4965 68.3831 89.02 67.7449 88.5094L67.8661 87.1911ZM67.716 88.8087C68.8302 89.9105 70.1295 90.8087 71.555 91.4625L71.4511 92.919C70.2157 92.0209 68.8706 91.2265 67.5602 90.4379L67.716 88.8087ZM67.5371 90.7142C68.7552 91.6122 70.0021 92.539 71.2952 93.3219C71.3328 93.341 71.3743 93.3508 71.4165 93.3507L71.3472 94.3409C70.0887 93.5234 68.6859 92.8672 67.4043 92.0727C67.4505 91.6007 67.4909 91.1459 67.5371 90.6912V90.7142ZM67.3754 92.3491C68.5865 93.3149 69.9081 94.1342 71.3126 94.7899C71.3126 95.0835 71.2721 95.3655 71.2491 95.6706C69.9559 94.9223 68.6051 94.2257 67.26 93.5752C67.3004 93.1435 67.335 92.7348 67.3754 92.326V92.3491ZM67.2311 93.84C68.53 94.6344 69.8636 95.4058 71.2144 96.0909C71.1856 96.4593 71.1625 96.822 71.1336 97.1846C69.7116 96.6171 68.3827 95.841 67.1907 94.882C67.1817 94.8778 67.1718 94.8757 67.1618 94.8757C67.1519 94.8757 67.142 94.8778 67.133 94.882C67.1676 94.4963 67.2023 94.1624 67.2311 93.84ZM67.1099 95.1353C68.2544 96.2244 69.6181 97.0583 71.1105 97.5818C71.0816 97.9388 71.0586 98.2957 71.0297 98.6526V98.8886C69.7019 98.0654 68.3511 97.2883 66.9887 96.5399L67.1099 95.1353ZM66.9367 96.8623C68.2587 97.7488 69.598 98.618 70.9777 99.4297C70.9777 99.6773 70.9373 99.9305 70.9142 100.178C69.4839 99.4558 68.13 98.5918 66.8732 97.5991C66.879 97.3688 66.9021 97.1271 66.9309 96.8795L66.9367 96.8623ZM66.3248 102.786C67.5477 103.617 68.8244 104.367 70.1464 105.031C70.1993 105.062 70.2624 105.071 70.3219 105.056C70.3815 105.041 70.4326 105.003 70.4639 104.95C70.4953 104.898 70.5044 104.835 70.4893 104.775C70.4741 104.716 70.4359 104.665 70.3831 104.634C69.0851 103.825 67.7352 103.102 66.3421 102.469C66.3998 101.968 66.4518 101.468 66.5037 100.967C66.5585 101.056 66.6337 101.131 66.7231 101.185C66.7058 101.201 66.6919 101.22 66.6824 101.242C66.6729 101.263 66.668 101.286 66.668 101.309C66.668 101.333 66.6729 101.356 66.6824 101.377C66.6919 101.398 66.7058 101.417 66.7231 101.433L68.455 102.648C68.9988 103.079 69.5781 103.464 70.1868 103.799C70.36 103.874 70.5505 103.672 70.4004 103.528C69.8851 103.097 69.3326 102.712 68.7494 102.377L67.1099 101.324H67.1849C67.2084 101.317 67.2297 101.304 67.2467 101.286C67.2638 101.268 67.2761 101.247 67.2824 101.223C67.2888 101.2 67.289 101.175 67.283 101.151C67.2771 101.127 67.2652 101.105 67.2484 101.088C67.1445 100.984 67.0233 100.978 66.9078 100.898C66.8656 100.877 66.8299 100.845 66.8045 100.805C66.7791 100.766 66.7649 100.72 66.7635 100.673C66.7635 100.598 66.6481 100.46 66.9021 100.483C66.9367 100.483 66.9425 100.437 66.9021 100.426C66.8418 100.409 66.7781 100.41 66.718 100.427C66.6579 100.444 66.6038 100.478 66.5615 100.523C66.5615 100.305 66.6019 100.086 66.625 99.8672C67.8488 100.725 69.1073 101.554 70.3543 102.371C70.614 102.544 70.868 102.118 70.6025 101.957C69.3151 101.151 68.0162 100.345 66.7 99.5794H66.6538C66.7116 99.0498 66.7635 98.5202 66.8155 97.9906C68.0468 99.0663 69.4036 99.9901 70.8565 100.742V100.742C70.7064 102.577 70.5505 104.413 70.3889 106.251C69.0611 105.348 67.6237 104.565 66.2324 103.747C66.2555 103.413 66.2901 103.108 66.319 102.803L66.3248 102.786ZM66.1978 104.012C67.5024 104.887 68.8013 105.808 70.158 106.585C70.1889 106.602 70.2236 106.611 70.259 106.611C70.2944 106.611 70.3291 106.602 70.36 106.585L70.2388 108.019C69.6546 107.581 69.0325 107.195 68.3799 106.867L66.2728 105.647C66.2368 105.625 66.1938 105.619 66.1532 105.63C66.1126 105.64 66.0778 105.666 66.0563 105.702C66.0349 105.737 66.0286 105.78 66.0389 105.821C66.0492 105.861 66.0752 105.896 66.1112 105.917C67.3639 106.735 68.657 107.783 70.0367 108.358C70.0699 108.371 70.1062 108.373 70.1405 108.363C70.1747 108.354 70.2051 108.334 70.2273 108.306C70.2273 108.612 70.1753 108.911 70.1522 109.21C69.5449 108.779 68.9062 108.395 68.2414 108.059C67.5082 107.633 66.7808 107.207 66.0419 106.792C66.0231 106.783 66.0024 106.778 65.9813 106.778C65.9602 106.778 65.9394 106.783 65.9207 106.792C65.9957 105.866 66.0881 104.95 66.192 104.029L66.1978 104.012ZM65.8745 107.017C66.5865 107.477 67.3004 107.932 68.0162 108.381C68.6297 108.821 69.2807 109.206 69.9617 109.533C69.9829 109.544 70.0068 109.55 70.031 109.55C70.0552 109.55 70.079 109.544 70.1003 109.533L69.9963 110.684C69.9832 110.664 69.9653 110.649 69.9444 110.638C68.5935 109.815 67.1041 109.176 65.7244 108.387C65.7648 107.973 65.8168 107.501 65.8687 107.034L65.8745 107.017ZM65.684 108.744C66.9669 109.644 68.336 110.415 69.7712 111.047C69.804 111.059 69.8395 111.062 69.8741 111.056C69.9086 111.05 69.9408 111.035 69.9675 111.012L69.8289 112.503C69.2913 112.191 68.7318 111.918 68.1548 111.686C67.4563 111.311 66.7635 110.931 66.0534 110.58C66.019 110.56 65.9777 110.554 65.9388 110.563C65.8998 110.573 65.8663 110.598 65.8456 110.632C65.825 110.666 65.8188 110.708 65.8286 110.746C65.8383 110.785 65.8631 110.819 65.8976 110.839C66.573 111.26 67.26 111.651 67.9412 112.054C68.5191 112.455 69.136 112.796 69.7827 113.073L69.7135 113.833C69.0466 113.414 68.3523 113.041 67.6352 112.716C66.8905 112.336 66.1516 111.933 65.378 111.617C65.4819 110.661 65.5801 109.723 65.6782 108.807L65.684 108.744ZM65.1586 113.608C66.4345 114.282 67.7276 114.932 69.0207 115.589C69.3151 115.738 69.598 115.283 69.2805 115.14C67.9239 114.495 66.5672 113.85 65.1991 113.234C65.2568 112.745 65.3087 112.255 65.3607 111.766C66.0708 112.255 66.8328 112.67 67.5833 113.096C68.2438 113.545 68.9454 113.93 69.6788 114.247C69.5922 115.157 69.5114 116.066 69.4248 116.976C68.6513 116.567 67.8661 116.176 67.0868 115.784C66.4358 115.397 65.7448 115.08 65.0259 114.84C65.0663 114.455 65.1067 114.052 65.1529 113.649L65.1586 113.608ZM64.997 115.059C65.5797 115.481 66.2 115.849 66.8501 116.158C67.6352 116.59 68.4203 117.022 69.217 117.442C69.2691 117.462 69.3265 117.462 69.3786 117.442C69.344 117.805 69.3151 118.168 69.2747 118.524C68.4938 118.03 67.6799 117.59 66.8386 117.206C66.2014 116.854 65.5396 116.548 64.8585 116.291C64.9046 115.911 64.9508 115.508 64.9912 115.099L64.997 115.059ZM64.8354 116.567C65.4535 116.994 66.0996 117.378 66.7693 117.719C67.554 118.219 68.3784 118.654 69.2343 119.02L69.1477 119.918C68.507 119.516 67.8461 119.147 67.1676 118.812C66.3479 118.352 65.557 117.845 64.7488 117.367C64.8007 117.137 64.8007 116.867 64.8296 116.607L64.8354 116.567ZM64.7084 117.719C65.4242 118.254 66.1804 118.743 66.9425 119.209C67.6111 119.689 68.3362 120.086 69.1015 120.39C69.0611 120.827 69.0207 121.259 68.9745 121.696C68.334 121.192 67.6524 120.741 66.9367 120.349C66.167 119.858 65.3799 119.371 64.5756 118.887C64.616 118.519 64.6564 118.127 64.7026 117.736L64.7084 117.719ZM64.3504 120.913H64.3908C64.409 120.916 64.4275 120.912 64.4433 120.903C64.459 120.893 64.4711 120.879 64.4774 120.862C64.483 120.898 64.5014 120.93 64.5294 120.954C65.1529 121.42 65.7821 121.875 66.4114 122.335C66.9405 122.787 67.5219 123.173 68.1432 123.487C68.3049 123.55 68.3915 123.325 68.2991 123.216C67.7734 122.739 67.1919 122.328 66.5672 121.99C65.9264 121.564 65.2799 121.132 64.6275 120.712C64.6125 120.701 64.5949 120.694 64.5764 120.691C64.5578 120.689 64.539 120.691 64.5216 120.698C64.5043 120.705 64.489 120.717 64.4772 120.731C64.4655 120.745 64.4576 120.763 64.4544 120.781C64.4575 120.766 64.4575 120.75 64.4544 120.735L64.3678 120.654C64.4197 120.171 64.4717 119.693 64.5294 119.209C65.2568 119.71 65.9899 120.194 66.7173 120.683C67.3919 121.211 68.1193 121.668 68.8879 122.048C68.8879 122.048 68.9168 122.048 68.9341 122.048L68.657 124.834C67.2422 123.948 65.7816 123.137 64.2812 122.404C64.2475 122.393 64.2109 122.393 64.1773 122.404C64.2234 121.921 64.2869 121.426 64.3447 120.931L64.3504 120.913ZM64.1484 122.704C65.5783 123.639 67.0647 124.485 68.5993 125.237V125.237C68.5589 125.668 68.5185 126.1 68.4723 126.532C67.7276 126.008 66.8212 125.668 66.0419 125.191C65.2626 124.713 64.6679 124.293 64.0041 123.821C64.0618 123.469 64.1022 123.095 64.1426 122.721L64.1484 122.704ZM63.981 124.172C64.568 124.679 65.187 125.148 65.8341 125.576C66.6232 126.179 67.5042 126.651 68.4434 126.975C68.3972 127.418 68.3568 127.862 68.3106 128.299C67.1099 127.228 65.378 126.52 63.7731 125.91C63.8424 125.335 63.9059 124.765 63.9752 124.189L63.981 124.172ZM63.4383 128.777L63.7501 126.14C64.3793 126.451 65.0028 126.768 65.6147 127.113C66.4575 127.591 67.2542 128.219 68.1317 128.61C68.1763 128.627 68.2256 128.627 68.2702 128.61C68.2356 128.978 68.1952 129.347 68.1606 129.715C67.5435 129.219 66.869 128.797 66.1516 128.46C65.4011 128.011 64.601 127.65 63.7674 127.384C63.7391 127.372 63.707 127.371 63.6783 127.383C63.6496 127.394 63.6266 127.416 63.6144 127.444C63.6021 127.473 63.6016 127.505 63.613 127.533C63.6244 127.562 63.6467 127.585 63.675 127.597C64.4255 128.103 65.2856 128.466 66.065 128.927C66.7213 129.372 67.4058 129.773 68.1144 130.13C68.0509 130.705 67.9989 131.281 67.9354 131.857H67.9065C66.4017 131.001 64.8892 130.155 63.369 129.318L63.4383 128.777ZM63.3229 129.641C64.7584 130.523 66.2035 131.394 67.6583 132.254C67.6925 132.277 67.7327 132.289 67.7738 132.289C67.8149 132.289 67.8551 132.277 67.8892 132.254C67.8546 132.576 67.8257 132.899 67.7911 133.221C66.3097 132.354 64.7661 131.598 63.1728 130.959C63.2074 130.562 63.2651 130.107 63.3171 129.681L63.3229 129.641ZM63.115 131.298C64.59 132.2 66.1343 132.983 67.7334 133.641H67.7738C67.7276 134.021 67.6929 134.407 67.6468 134.793C66.8714 134.31 66.0564 133.894 65.2106 133.549C64.4717 133.198 63.7385 132.835 62.988 132.507L63.115 131.298ZM62.9188 132.807C63.6519 133.215 64.3966 133.601 65.1356 133.993C65.8874 134.448 66.6797 134.833 67.5024 135.144C67.5272 135.149 67.5527 135.149 67.5775 135.144C67.5082 135.754 67.4505 136.358 67.3812 136.969C65.7648 136.239 64.2039 135.392 62.7109 134.436L62.9188 132.807ZM62.3992 136.905C63.8124 137.627 65.1811 138.433 66.498 139.317C66.7866 139.507 67.0752 139.047 66.7693 138.857C65.4197 137.946 63.9613 137.208 62.4281 136.658C62.5089 136.082 62.5839 135.46 62.659 134.862C64.0719 135.94 65.6111 136.843 67.2427 137.55C67.2654 137.556 67.2892 137.556 67.3119 137.55C67.1907 138.644 67.0752 139.743 66.9425 140.837C65.4374 139.867 63.8585 139.017 62.2202 138.293L62.3992 136.905ZM62.1856 138.558C63.6651 139.563 65.2275 140.441 66.8559 141.183C66.8709 141.187 66.8871 141.187 66.9021 141.183C66.8559 141.609 66.8039 142.035 66.752 142.461C66.0462 141.996 65.3158 141.569 64.564 141.183C63.7212 140.71 62.8841 140.221 62.024 139.772C62.0759 139.415 62.1279 139.007 62.1798 138.598L62.1856 138.558ZM61.8161 141.367C61.8739 140.947 61.9258 140.521 61.9835 140.1C62.7629 140.601 63.5596 141.079 64.3504 141.562C65.1041 142.068 65.8889 142.525 66.7 142.933L66.5326 144.28C65.0351 143.264 63.4373 142.404 61.7642 141.712C61.7757 141.62 61.793 141.505 61.8104 141.407L61.8161 141.367ZM61.7122 142.046C63.2825 142.852 64.7719 143.744 66.2959 144.648C66.3259 144.665 66.3597 144.673 66.394 144.673C66.4284 144.673 66.4622 144.665 66.4922 144.648C66.4345 145.109 66.3825 145.563 66.3248 146.018C64.743 145.114 63.1381 144.216 61.5044 143.405C61.5737 143.002 61.6372 142.547 61.7064 142.086L61.7122 142.046ZM61.4524 143.733C63.0111 144.757 64.6333 145.707 66.2497 146.611C66.2093 146.939 66.1747 147.267 66.1343 147.595C64.5467 146.732 62.9592 145.868 61.3947 145.022C61.3697 145.01 61.342 145.003 61.3139 145.003C61.2858 145.003 61.2581 145.01 61.2331 145.022C61.3023 144.654 61.3716 144.211 61.4467 143.773L61.4524 143.733ZM60.5519 156.311C60.5547 156.284 60.5547 156.257 60.5519 156.23C60.5519 156.086 60.5115 155.948 60.4941 155.81C60.6064 155.909 60.724 156.001 60.8463 156.086L61.0483 156.225L60.5519 156.311ZM61.7064 156.104C61.4737 156 61.2463 155.885 61.0252 155.758C60.8347 155.649 60.6154 155.522 60.448 155.39C60.3845 154.814 60.3498 154.279 60.3325 153.726C61.0887 154.083 61.8335 154.446 62.5666 154.843C63.0689 155.114 63.5538 155.419 64.0733 155.695C63.2882 155.827 62.4916 155.96 61.7295 156.104H61.7064ZM64.6391 155.586C63.5191 154.572 61.7873 153.98 60.396 153.433C60.3663 153.421 60.3333 153.421 60.3036 153.433C60.3036 153.041 60.3036 152.644 60.3036 152.281C62.0355 153.536 64.2754 154.452 66.2324 155.344L64.6391 155.586ZM66.8732 155.223C66.8732 155.185 66.8623 155.148 66.8419 155.117C66.8214 155.085 66.7922 155.06 66.7577 155.045C64.8007 153.985 62.5435 152.632 60.3498 151.982C60.3498 151.481 60.4075 150.975 60.4537 150.474C63.0158 152.123 65.6698 153.626 68.403 154.975L66.8732 155.223ZM69.1015 154.872C66.3742 153.047 63.4738 151.492 60.4422 150.232C60.4884 149.76 60.5519 149.294 60.6154 148.827C63.9059 150.796 67.2773 153.156 70.8392 154.532C70.9835 154.584 71.0355 154.382 70.9373 154.308C67.9412 151.982 64.0964 150.307 60.6904 148.528C60.7655 147.993 60.8463 147.463 60.9329 146.928C64.9393 149.518 69.0611 151.936 73.2234 154.273C71.8552 154.463 70.487 154.659 69.1246 154.86L69.1015 154.872ZM74.0374 154.141C74.0155 154.104 73.9834 154.074 73.945 154.054C69.6038 151.591 65.3087 149.104 60.9733 146.64L61.1811 145.362L61.2158 145.391C65.9553 148.286 70.7526 151.406 75.7692 153.905L74.0374 154.141ZM76.5313 153.795C73.6448 151.832 70.5563 150.071 67.4505 148.373L69.2632 148.171C70.158 149.288 72.0457 150.169 73.2407 150.9C74.7936 151.855 76.3869 152.748 78.0034 153.594L76.5313 153.795ZM78.8404 153.479C75.7288 151.832 72.8251 149.869 69.7885 148.119L72.063 147.866C74.9495 149.731 77.8937 151.498 80.8667 153.202L78.8404 153.479ZM81.5364 153.11C81.5192 153.089 81.4976 153.071 81.4729 153.058C78.4536 151.331 75.4691 149.57 72.4729 147.82L74.1471 147.63C76.716 149.415 79.2676 151.366 81.952 152.949C82.1368 153.058 82.3504 152.794 82.1829 152.644C79.8724 150.708 77.3738 149.007 74.7243 147.567L76.4909 147.371C79.0122 149.305 81.6432 151.092 84.3709 152.725L81.5364 153.11ZM84.6826 152.684C84.7001 152.668 84.714 152.649 84.7236 152.627C84.7331 152.605 84.738 152.581 84.738 152.558C84.738 152.534 84.7331 152.51 84.7236 152.489C84.714 152.467 84.7001 152.447 84.6826 152.431C82.2002 150.575 79.6093 148.868 76.9238 147.319L78.8808 147.106C81.3228 148.942 83.7647 150.929 86.3856 152.437L84.6826 152.684ZM86.9918 152.362C86.9883 152.307 86.9634 152.255 86.9225 152.218C84.5373 150.329 82.0303 148.598 79.4177 147.037L81.3228 146.841C83.7185 148.632 86.1143 150.41 88.5562 152.126L86.9918 152.362ZM92.9494 151.539L89.2894 152.045C89.2704 151.982 89.2321 151.925 89.1797 151.884C86.7493 150.157 84.2727 148.476 81.7904 146.813L84.0014 146.6C84.8847 147.331 85.7852 148.05 86.6973 148.747C87.9789 149.725 89.3009 150.923 90.773 151.573C90.9578 151.654 91.1598 151.441 91.0039 151.28C89.9706 150.255 88.6024 149.553 87.4074 148.689C86.3972 147.987 85.4042 147.273 84.4055 146.559L86.3394 146.381C88.5966 148.108 90.9578 150.071 93.3997 151.475L92.9494 151.539ZM94.104 151.378C91.9738 149.455 89.3298 147.889 86.8705 146.329L88.8333 146.162C90.9015 147.989 93.0947 149.67 95.3971 151.193L94.104 151.378ZM96.0725 151.101C96.0634 151.071 96.0453 151.045 96.0206 151.026C93.9526 149.219 91.7465 147.575 89.4222 146.11L91.2579 145.961C92.2682 146.761 93.29 147.555 94.3291 148.327C95.4837 149.184 96.6383 150.261 97.9718 150.819C98.1335 150.882 98.2258 150.652 98.1277 150.549C97.2098 149.547 95.8994 148.85 94.7967 148.067C93.7922 147.354 92.7916 146.636 91.7948 145.914L93.7461 145.782C95.7497 147.47 97.8425 149.049 100.015 150.514L100.108 150.549L96.0725 151.101ZM100.275 150.526C100.318 150.5 100.354 150.464 100.379 150.42C100.404 150.377 100.417 150.328 100.417 150.278C100.417 150.228 100.404 150.179 100.379 150.136C100.354 150.092 100.318 150.056 100.275 150.03C98.1777 148.645 96.1149 147.219 94.0867 145.753L95.5645 145.661C97.7467 147.221 99.9231 148.81 102.175 150.266L100.275 150.526ZM102.827 150.186C102.834 150.135 102.827 150.082 102.806 150.035C102.786 149.987 102.753 149.946 102.711 149.915C100.593 148.413 98.3817 147.037 96.188 145.627C96.8346 145.586 97.4869 145.558 98.1392 145.523C99.1033 146.306 100.252 146.899 101.28 147.595C102.307 148.292 103.427 149.225 104.541 149.973L102.827 150.186ZM105.136 149.898C104.092 148.935 102.955 148.077 101.742 147.336C100.773 146.638 99.748 146.021 98.6761 145.494C99.0283 145.494 99.3746 145.454 99.7268 145.442L101.026 145.396C102.873 146.876 104.772 148.338 106.706 149.714L105.136 149.898ZM107.341 149.633C105.43 148.154 103.433 146.755 101.43 145.385L103.416 145.322C105.363 146.695 107.32 148.05 109.287 149.386H109.321L107.341 149.633ZM109.518 149.38C109.546 149.358 109.57 149.33 109.586 149.297C109.602 149.265 109.61 149.229 109.61 149.193C109.61 149.157 109.602 149.121 109.586 149.089C109.57 149.056 109.546 149.028 109.518 149.006C107.63 147.757 105.725 146.525 103.82 145.31L106.187 145.252C107.041 146.019 107.937 146.738 108.871 147.405C109.668 148.038 110.496 148.63 111.353 149.178L109.518 149.38ZM112.069 149.098C111.238 148.447 110.297 147.912 109.437 147.308C108.577 146.703 107.659 145.995 106.77 145.345C106.77 145.345 106.77 145.293 106.77 145.281L106.706 145.241L109.206 145.201C110.677 146.46 112.219 147.635 113.824 148.718C114.003 148.833 114.217 148.568 114.055 148.424C112.705 147.265 111.288 146.185 109.812 145.189H111.833C113.146 146.519 114.604 147.698 116.18 148.706C114.736 148.818 113.337 148.95 111.983 149.104L112.069 149.098ZM116.537 148.643C116.552 148.601 116.553 148.555 116.539 148.513C116.526 148.47 116.499 148.433 116.462 148.407C114.985 147.359 113.524 146.34 112.15 145.16H114.309C115.06 145.886 115.833 146.582 116.653 147.233C117.193 147.69 117.759 148.115 118.35 148.505L116.537 148.643ZM118.991 148.424C118.298 147.785 117.415 147.273 116.682 146.697C116.035 146.191 115.412 145.661 114.8 145.114H116.359C116.368 145.135 116.38 145.154 116.393 145.172C117.756 146.191 119.106 147.359 120.55 148.292C119.938 148.344 119.418 148.378 118.904 148.424H118.991ZM123.101 148.108C122.472 148.148 121.849 148.206 121.219 148.252C119.791 147.131 118.306 146.086 116.768 145.12H118.714L120.579 146.461C121.298 147.045 122.071 147.56 122.888 147.998C123.038 148.067 123.205 147.889 123.078 147.757C122.417 147.181 121.702 146.67 120.942 146.231L119.28 145.12H121.312C122.49 146.14 123.745 147.069 125.064 147.901C125.255 148.01 125.474 147.745 125.307 147.59C124.244 146.68 123.113 145.853 121.924 145.114H123.684L125.041 146.174C125.763 146.81 126.535 147.388 127.35 147.901C125.915 147.935 124.469 148.004 123.015 148.108H123.101ZM127.985 147.86C127.988 147.841 127.988 147.822 127.985 147.803C127.265 147.071 126.456 146.431 125.578 145.897L124.348 145.074H126.121C126.605 145.529 127.096 145.972 127.61 146.404C128.163 146.903 128.741 147.373 129.342 147.814C128.88 147.826 128.378 147.837 127.899 147.86H127.985ZM130.092 147.791C129.417 147.129 128.568 146.611 127.835 146.018C127.454 145.707 127.073 145.391 126.68 145.068H128.557C129.008 145.535 129.491 145.972 130 146.375C130.612 146.927 131.323 147.359 132.095 147.647C132.129 147.655 132.164 147.651 132.195 147.638C132.227 147.624 132.253 147.601 132.27 147.572C132.288 147.542 132.295 147.508 132.292 147.474C132.288 147.44 132.274 147.408 132.251 147.382C131.674 146.887 130.941 146.576 130.317 146.139C129.837 145.812 129.376 145.456 128.938 145.074H130.358L132.344 146.473C132.921 146.882 133.498 147.354 134.116 147.734C132.748 147.728 131.38 147.751 130.035 147.791H130.092ZM134.965 147.699C133.76 146.694 132.463 145.806 131.091 145.045H132.823C133.4 145.5 134.024 145.955 134.636 146.404C135.2 146.868 135.79 147.3 136.402 147.699H134.965ZM136.979 147.699C136.354 147.125 135.674 146.614 134.947 146.174L133.296 145.022H135.346C135.796 145.414 136.252 145.794 136.725 146.174C137.411 146.771 138.162 147.289 138.965 147.716L136.979 147.699ZM139.525 147.699C139.528 147.679 139.527 147.659 139.521 147.64C139.515 147.621 139.505 147.604 139.491 147.59C138.795 146.985 138.043 146.447 137.245 145.984C136.806 145.673 136.373 145.35 135.946 145.016H137.505C138.694 145.943 139.9 146.91 141.165 147.734L139.525 147.699ZM142.025 147.699C140.808 146.71 139.53 145.798 138.197 144.97L140.818 144.936C141.396 145.327 141.973 145.684 142.504 146.087C143.272 146.628 144.022 147.239 144.813 147.745L142.025 147.699ZM145.431 147.734C144.617 147.058 143.765 146.43 142.879 145.851C142.435 145.546 141.99 145.224 141.528 144.924H142.798C144.207 145.874 145.616 146.864 147.059 147.768L145.431 147.734ZM147.705 147.762C146.245 146.755 144.709 145.834 143.197 144.884L145.385 144.85C146.8 145.901 148.271 146.877 149.789 147.774L147.705 147.762ZM155.066 147.849L150.338 147.791C148.866 146.716 147.323 145.741 145.72 144.873L148.404 144.821C149.839 145.901 151.347 146.88 152.918 147.751C153.04 147.808 153.195 147.647 153.074 147.549C151.746 146.533 150.343 145.617 148.877 144.809L151.186 144.757C152.699 145.776 154.229 146.945 155.805 147.878L155.066 147.849ZM156.561 147.849C154.945 146.719 153.273 145.671 151.55 144.711L153.83 144.654C155.088 145.863 156.474 146.932 157.964 147.843L156.561 147.849ZM158.87 147.878C158.183 147.457 157.462 147.089 156.792 146.646C155.867 146.024 154.975 145.356 154.119 144.642L156.821 144.562C158.319 145.784 159.898 146.903 161.549 147.912L158.87 147.878ZM162.028 147.918C162.025 147.888 162.013 147.86 161.993 147.837C160.534 146.62 158.98 145.521 157.346 144.55L159.655 144.475C161.205 145.704 162.843 146.818 164.556 147.808C164.689 147.878 164.857 147.693 164.73 147.584C163.295 146.429 161.774 145.384 160.181 144.458L162.761 144.36C164.141 145.677 165.619 146.888 167.183 147.981L162.028 147.918ZM167.905 147.987C166.387 146.72 164.747 145.569 163.177 144.349L164.845 144.274C166.485 145.488 168.072 146.772 169.683 148.016L167.905 147.987ZM165.197 144.262L167.16 144.17C168.794 145.488 170.428 146.841 172.136 148.05L170.283 148.021C168.651 146.665 166.929 145.421 165.128 144.297L165.197 144.262ZM174.301 150.336L171.161 150.048C171.738 150.048 172.315 150.013 172.893 149.984C173.504 150.071 174.116 150.169 174.723 150.278L174.301 150.336ZM174.977 148.096C174.98 148.072 174.978 148.047 174.97 148.024C174.962 148.001 174.948 147.98 174.93 147.964C173.355 146.559 171.699 145.247 169.971 144.032C170.549 144.032 171.126 143.974 171.703 143.946C173.452 145.482 175.316 146.881 177.28 148.131L174.977 148.096ZM177.701 148.142C177.728 148.112 177.742 148.073 177.742 148.033C177.742 147.993 177.728 147.954 177.701 147.924C175.974 146.44 174.126 145.102 172.177 143.923L174.07 143.819C175.603 145.569 177.427 147.041 179.462 148.171L177.701 148.142ZM180.299 148.183C178.246 146.879 176.302 145.412 174.486 143.796L176.218 143.692C178.025 145.247 179.93 147.02 181.991 148.223L180.299 148.183ZM185.293 148.292C183.261 146.549 181.089 144.976 178.798 143.589C178.729 143.549 178.642 143.646 178.712 143.704C180.617 145.299 182.666 146.749 184.635 148.275L182.325 148.229C182.347 148.205 182.36 148.174 182.36 148.142C182.36 148.11 182.347 148.079 182.325 148.056C180.594 146.45 178.504 145.12 176.616 143.675C178.157 143.583 179.699 143.491 181.234 143.387C183.157 145.114 185.12 146.761 187.163 148.327L185.293 148.292ZM188.179 147.544C188.159 147.868 188.159 148.193 188.179 148.516C185.991 146.79 183.792 145.109 181.61 143.382L183.919 143.22C185.385 144.613 186.884 145.985 188.416 147.336C188.344 147.33 188.271 147.351 188.214 147.396C188.157 147.441 188.12 147.506 188.11 147.578L188.179 147.544ZM195.649 158.66C196.273 158.873 196.908 159.057 197.549 159.235C197.563 159.321 197.608 159.399 197.676 159.454C196.914 159.247 196.244 158.982 195.58 158.694L195.649 158.66ZM197.756 156.616C195.211 154.313 192.411 152.235 189.801 150.007C189.709 149.921 189.57 150.054 189.663 150.146C191.75 152.333 194.011 154.348 196.423 156.173C192.63 154.584 189.495 151.878 188.635 147.665C192.719 151.278 197.044 154.613 201.578 157.646C200.256 157.422 198.954 157.089 197.687 156.651L197.756 156.616ZM202.3 157.716C196.192 152.926 190.073 148.211 184.156 143.18L186.349 143.019C191.597 148.447 197.612 153.836 204.032 157.911C203.391 157.9 202.814 157.836 202.23 157.739L202.3 157.716ZM205.302 157.998L204.724 157.957C202.3 155.948 199.858 153.98 197.416 152.005C198.531 152.538 199.69 152.975 200.88 153.312C202.687 154.947 204.545 156.541 206.491 158.015C206.023 158.049 205.625 158.044 205.232 158.032L205.302 157.998ZM207.034 157.998C205.198 156.478 203.327 154.993 201.492 153.467C202.415 153.713 203.352 153.905 204.297 154.043C205.828 155.473 207.488 156.758 209.256 157.883C208.431 157.969 207.686 158.021 206.964 158.038L207.034 157.998ZM209.678 157.808C208.09 156.478 206.329 155.344 204.695 154.06C205.487 154.157 206.283 154.211 207.08 154.221C208.336 155.493 209.735 156.617 211.248 157.572C210.653 157.704 210.128 157.785 209.608 157.848L209.678 157.808ZM207.345 154.285C208.117 154.29 208.888 154.252 209.654 154.169C209.641 154.187 209.633 154.208 209.633 154.23C209.633 154.252 209.641 154.273 209.654 154.29C210.26 154.925 210.898 155.528 211.565 156.098C212.012 156.511 212.484 156.896 212.98 157.249C212.575 157.353 212.166 157.451 211.75 157.531C210.204 156.558 208.732 155.472 207.345 154.285ZM213.014 159.892C212.95 159.829 212.867 159.788 212.778 159.776C212.823 159.715 212.852 159.644 212.864 159.569L213.603 159.42C213.636 159.462 213.675 159.499 213.719 159.529L213.014 159.892ZM213.436 157.123C212.858 156.645 212.235 156.248 211.669 155.787C211.103 155.327 210.399 154.716 209.793 154.152C210.396 154.084 210.995 153.986 211.588 153.859C212.14 154.441 212.732 154.983 213.361 155.482C213.842 155.971 214.415 156.362 215.046 156.633C214.515 156.789 213.978 156.956 213.436 157.105V157.123ZM215.231 156.547C215.239 156.531 215.243 156.513 215.243 156.495C215.243 156.477 215.239 156.459 215.231 156.443C214.729 155.977 214.173 155.573 213.574 155.24C212.997 154.791 212.42 154.302 211.877 153.801C212.376 153.688 212.87 153.55 213.355 153.387L214.688 154.406C215.235 154.892 215.831 155.32 216.466 155.683C216.499 155.698 216.536 155.7 216.57 155.69C216.604 155.68 216.633 155.658 216.653 155.628C216.672 155.598 216.68 155.563 216.676 155.528C216.671 155.492 216.654 155.46 216.628 155.436C216.113 154.965 215.55 154.548 214.948 154.193L213.615 153.271C213.986 153.141 214.35 152.991 214.706 152.822C215.179 153.254 215.67 153.657 216.184 154.043C216.665 154.466 217.206 154.817 217.788 155.085C217.819 155.093 217.852 155.091 217.881 155.079C217.911 155.066 217.935 155.045 217.951 155.017C217.967 154.99 217.973 154.958 217.969 154.926C217.965 154.894 217.95 154.865 217.927 154.843C217.491 154.483 217.026 154.159 216.536 153.876C215.993 153.507 215.468 153.11 214.948 152.725C215.345 152.526 215.731 152.305 216.103 152.063C216.983 152.947 218.039 153.637 219.203 154.089C219.393 154.146 219.474 153.893 219.33 153.784C218.816 153.415 218.175 153.208 217.656 152.845C217.198 152.559 216.757 152.248 216.334 151.913C216.681 151.679 217.012 151.423 217.327 151.147C217.638 151.418 217.95 151.683 218.285 151.93C218.765 152.345 219.309 152.679 219.896 152.92C219.927 152.931 219.961 152.93 219.992 152.919C220.023 152.907 220.049 152.886 220.066 152.858C220.082 152.829 220.089 152.796 220.084 152.763C220.08 152.731 220.064 152.701 220.04 152.679C219.578 152.355 219.1 152.055 218.608 151.78C218.233 151.533 217.875 151.257 217.523 150.975C217.812 150.708 218.084 150.423 218.337 150.123C218.725 150.522 219.14 150.895 219.578 151.239C220.057 151.673 220.611 152.018 221.212 152.258C219.849 154.227 217.673 155.609 215.231 156.524V156.547ZM221.391 151.982C220.912 151.579 220.3 151.326 219.786 150.963C219.337 150.644 218.913 150.291 218.516 149.91C218.735 149.633 218.943 149.334 219.139 149.04L220.409 149.933C220.864 150.327 221.373 150.652 221.922 150.9C221.922 150.9 221.956 150.9 221.98 150.9C221.808 151.273 221.611 151.635 221.391 151.982V151.982ZM222.072 150.698V150.664C221.633 150.252 221.137 149.905 220.6 149.633L219.301 148.793C219.492 148.469 219.663 148.135 219.815 147.791C220.294 148.137 220.773 148.482 221.246 148.833C221.633 149.115 222.014 149.455 222.401 149.72C222.312 150.056 222.202 150.387 222.072 150.71V150.698ZM222.545 149.265C222.21 149.029 221.847 148.822 221.512 148.597C220.975 148.246 220.444 147.889 219.913 147.532C219.971 147.382 220.017 147.227 220.075 147.077C220.964 147.728 221.881 148.407 222.811 149.023C222.748 149.037 222.69 149.069 222.643 149.113C222.596 149.158 222.562 149.214 222.545 149.276V149.265ZM226.373 148.344C226.293 148.342 226.215 148.366 226.149 148.411C226.084 148.457 226.035 148.522 226.009 148.597C225.08 148.597 224.144 148.597 223.215 148.637C222.228 147.975 221.194 147.365 220.184 146.766C220.332 146.32 220.45 145.864 220.536 145.402H220.883C221.5 145.868 222.118 146.335 222.742 146.795C223.507 147.439 224.326 148.017 225.189 148.522C225.225 148.545 225.267 148.553 225.309 148.546C225.35 148.538 225.387 148.516 225.413 148.483C225.438 148.449 225.45 148.408 225.446 148.366C225.442 148.324 225.423 148.285 225.391 148.257C224.671 147.63 223.898 147.063 223.082 146.565L221.379 145.414H223.111C223.746 145.955 224.395 146.481 225.057 146.991C225.674 147.457 226.309 148.004 226.99 148.419L226.373 148.344ZM227.804 148.436C227.056 147.799 226.259 147.222 225.42 146.709C224.797 146.266 224.185 145.805 223.573 145.345H224.872C225.732 145.92 226.604 146.496 227.458 147.072C228.151 147.549 228.826 148.096 229.548 148.54C228.976 148.528 228.393 148.488 227.804 148.447V148.436ZM230.223 148.574C228.878 147.285 227.014 146.271 225.362 145.356H227.51C227.51 145.377 227.516 145.397 227.526 145.415C227.536 145.433 227.55 145.448 227.568 145.46C228.959 146.49 230.339 147.647 231.805 148.609L230.223 148.574ZM232.613 148.574C231.147 147.371 229.467 146.363 227.891 145.31L230.402 145.275C231.817 146.381 233.202 147.538 234.645 148.609L232.613 148.574ZM235.448 148.62C233.958 147.469 232.371 146.381 230.829 145.27H232.596C233.242 146.044 233.952 146.763 234.72 147.417C235.227 147.879 235.774 148.295 236.354 148.66L235.448 148.62ZM237.145 148.655C236.464 147.964 235.563 147.503 234.836 146.847C234.259 146.34 233.681 145.799 233.133 145.241L235.09 145.212C235.28 145.398 235.485 145.569 235.702 145.725C237.001 146.715 238.282 147.762 239.616 148.718L237.145 148.655ZM240.187 148.735C239.46 148.16 238.698 147.584 237.953 147.054C237.107 146.488 236.295 145.87 235.523 145.206L237.965 145.172C238.564 145.825 239.196 146.448 239.858 147.037C240.544 147.675 241.284 148.253 242.069 148.764L240.187 148.735ZM242.693 148.816C241.867 148.021 240.822 147.423 239.945 146.68C239.368 146.197 238.831 145.69 238.3 145.166L240.499 145.137C241.769 146.555 243.205 147.815 244.777 148.891C244.084 148.891 243.385 148.862 242.693 148.845V148.816ZM245.579 148.914C244.713 148.257 243.795 147.664 242.947 146.968C242.237 146.392 241.573 145.765 240.915 145.132L242.733 145.103C244.193 146.501 245.745 147.799 247.38 148.989L245.579 148.914ZM248.096 149.017C246.416 147.699 244.707 146.421 243.033 145.097L245.181 145.068C246.698 146.504 248.297 147.849 249.972 149.098L248.096 149.017ZM250.746 149.132C249.112 147.699 247.317 146.41 245.602 145.062L247.709 145.034C249.07 146.56 250.572 147.956 252.195 149.202C251.687 149.207 251.208 149.178 250.723 149.161L250.746 149.132ZM253.009 149.242C252.131 148.419 251.127 147.699 250.221 146.939C249.505 146.323 248.8 145.69 248.102 145.051H249.614C250.423 145.845 251.3 146.588 252.155 147.354C252.906 148.07 253.696 148.745 254.521 149.374L253.009 149.242ZM255.064 149.345C255.064 149.345 255.064 149.305 255.064 149.294C254.157 148.361 253.176 147.503 252.131 146.726C251.433 146.151 250.746 145.575 250.03 144.999L252.108 144.97C253.741 146.554 255.456 148.05 257.246 149.455L255.064 149.345ZM257.748 149.484C257.748 149.438 257.729 149.395 257.697 149.363C256.009 147.791 254.225 146.324 252.357 144.97H254.666C256.311 146.594 258.002 148.355 259.89 149.622L257.748 149.484ZM260.167 149.616C260.199 149.58 260.216 149.534 260.216 149.486C260.216 149.439 260.199 149.393 260.167 149.357C258.646 147.73 256.972 146.251 255.168 144.942H257.281C258.308 145.575 259.238 146.87 260 147.647C260.675 148.338 261.333 149.063 262.032 149.743L260.167 149.616ZM262.8 149.76C261.778 148.689 260.612 147.711 259.532 146.709C258.937 146.064 258.294 145.464 257.61 144.913H259.965C261.277 146.766 262.83 148.436 264.584 149.881L262.8 149.76ZM265.45 149.91C263.718 148.257 261.986 146.68 260.404 144.884H261.888C263.549 146.819 265.437 148.548 267.51 150.036L265.45 149.91ZM268.336 150.071C266.158 148.545 264.136 146.81 262.298 144.89H264.312C265.922 146.895 267.791 148.678 269.872 150.192L268.336 150.071ZM270.524 150.197C268.467 148.518 266.5 146.733 264.63 144.85H266.748C268.233 146.923 270.019 148.764 272.048 150.313L270.524 150.197ZM272.96 150.336C271.927 149.426 270.778 148.609 269.768 147.682C268.812 146.784 267.906 145.834 267.054 144.838H269.312C270.23 145.943 271.217 146.997 272.233 148.01C273.035 148.881 273.899 149.693 274.819 150.439L272.96 150.336ZM275.489 150.474C274.542 149.432 273.335 148.563 272.314 147.595C271.292 146.628 270.478 145.765 269.583 144.832H271.384C272.245 145.881 273.16 146.884 274.126 147.837C275.048 148.831 276.052 149.746 277.128 150.572L275.489 150.474ZM277.879 150.606C276.816 149.512 275.494 148.626 274.38 147.584C273.439 146.703 272.568 145.771 271.702 144.826H273.56C274.594 145.903 275.633 146.979 276.695 148.027C277.578 148.896 278.427 149.881 279.42 150.692L277.879 150.606ZM280.188 150.733C279.241 149.639 278.04 148.718 277.001 147.734C275.962 146.749 274.957 145.799 273.941 144.826H276.193C278.56 146.738 280.684 148.856 282.941 150.882L280.188 150.733ZM286.642 151.09L283.623 150.923C281.588 148.597 279.248 146.557 276.666 144.855H278.531C280.562 147.019 282.738 149.045 285.043 150.917C285.285 151.107 285.62 150.773 285.389 150.566C283.19 148.706 281.008 146.847 278.929 144.855H281.14C282.33 145.926 283.525 146.997 284.719 148.056C285.914 149.115 287.075 150.428 288.472 151.188L286.642 151.09ZM288.714 151.193C288.724 151.179 288.73 151.162 288.73 151.144C288.73 151.127 288.724 151.11 288.714 151.095C287.768 149.789 286.249 148.793 285.02 147.757L281.556 144.878H281.614H283.432C285.695 147.037 287.941 149.334 290.36 151.285L288.714 151.193ZM291.179 151.326C288.845 149.047 286.39 146.895 283.825 144.878H285.776C287.916 147.341 290.353 149.53 293.032 151.395L291.179 151.326ZM293.685 151.458C293.678 151.421 293.66 151.387 293.633 151.36C291.11 149.23 288.582 147.181 286.192 144.913L288.761 144.953C290.927 147.395 293.335 149.613 295.948 151.573L293.685 151.458ZM296.802 151.619C294.239 149.403 291.607 147.296 289.159 144.959L290.925 144.993C292.335 146.383 293.817 147.697 295.365 148.931C296.45 149.846 297.506 150.831 298.644 151.7L296.802 151.619ZM299.406 151.757C298.09 150.485 296.577 149.374 295.163 148.217C293.844 147.072 292.466 145.996 291.035 144.993L293.806 145.057C296.225 147.359 298.65 149.662 301.155 151.855L299.406 151.757ZM301.859 151.89C299.36 149.547 296.756 147.285 294.164 145.062L297.016 145.132C299.111 147.434 301.553 149.91 304.232 151.464C304.267 151.482 304.306 151.487 304.345 151.479C304.383 151.47 304.417 151.449 304.441 151.418C304.465 151.387 304.477 151.349 304.476 151.31C304.475 151.271 304.46 151.234 304.434 151.205C303.21 150.053 301.784 149.127 300.503 148.033C299.429 147.118 298.407 146.15 297.391 145.155L299.844 145.218C302.288 147.879 305.044 150.237 308.054 152.241L301.859 151.89ZM308.879 152.27C305.993 149.892 303.008 147.728 300.249 145.212L302.864 145.281C305.469 147.929 308.329 150.316 311.402 152.408L308.879 152.27ZM312.204 152.454C309.318 150.002 306.229 147.797 303.343 145.322L305.843 145.391C308.452 147.906 311.321 150.491 314.502 152.27C314.698 152.385 314.946 152.097 314.756 151.942C311.95 149.737 309.041 147.739 306.345 145.402L308.336 145.465C310.959 148.039 313.724 150.462 316.621 152.725L312.204 152.454ZM317.215 152.736C317.209 152.697 317.191 152.661 317.163 152.632C314.529 150.069 311.735 147.673 308.798 145.46L310.53 145.512C313.607 148.073 316.771 150.572 320.032 152.897L317.215 152.736ZM320.679 152.932C320.686 152.902 320.683 152.87 320.672 152.842C320.66 152.813 320.641 152.788 320.615 152.771C317.44 150.318 314.213 147.929 311.004 145.529L313.85 145.621C316.304 148.506 319.18 151.005 322.382 153.035L320.679 152.932ZM325.978 153.243C325.978 153.221 325.973 153.2 325.964 153.18C325.955 153.16 325.942 153.142 325.926 153.128C323.04 150.618 319.98 148.148 316.869 145.897C316.776 145.828 316.661 145.978 316.748 146.053C319.501 148.557 322.445 150.946 325.407 153.208L322.913 153.064C322.913 153.064 322.913 153.035 322.913 153.03C321.424 151.7 319.749 150.566 318.225 149.271C316.846 148.119 315.558 146.818 314.184 145.632L319.38 145.811C322.174 148.702 325.302 151.252 328.697 153.41L325.978 153.243ZM332.663 153.709C332.658 153.695 332.648 153.683 332.635 153.674C329.627 150.952 326.163 148.632 322.925 146.191C322.815 146.11 322.665 146.294 322.774 146.387C325.799 148.822 328.778 151.475 332.011 153.669L329.373 153.502C329.37 153.473 329.361 153.445 329.346 153.42C329.331 153.395 329.311 153.374 329.286 153.358C325.944 151.003 322.803 148.516 319.698 145.874L325.332 146.087C328.338 148.915 331.561 151.504 334.973 153.83L332.663 153.709ZM335.7 153.899C335.687 153.846 335.656 153.8 335.613 153.767C332.3 151.257 329.003 148.776 325.799 146.11C326.515 146.11 327.237 146.174 327.953 146.202C330.932 148.845 333.997 151.412 337.074 153.945C337.322 154.146 337.68 153.795 337.432 153.588C334.442 151.09 331.416 148.609 328.34 146.22L330.833 146.329C333.818 149.104 336.93 151.982 340.365 154.175L335.7 153.899ZM341.184 154.25C341.172 154.22 341.152 154.195 341.127 154.175C337.957 151.493 334.574 149.092 331.44 146.352L332.987 146.427C335.926 149.396 339.169 152.051 342.662 154.348L341.184 154.25ZM344.735 156.127C344.669 156.067 344.586 156.029 344.498 156.017C344.071 155.96 343.638 155.925 343.205 155.873L345.046 155.977C345.043 156.042 345.055 156.107 345.081 156.167L344.735 156.127ZM343.459 154.4C340.082 151.775 336.681 149.219 333.443 146.438L335.382 146.53C338.656 149.161 341.837 151.913 345.121 154.509L343.459 154.4ZM345.82 154.561C342.641 151.702 339.3 149.027 335.815 146.548L338.044 146.663C339.198 147.947 340.774 149 342.085 150.117C343.938 151.665 345.768 153.26 347.708 154.722L345.82 154.561ZM347.858 154.699C347.885 154.688 347.909 154.67 347.927 154.647C347.946 154.624 347.959 154.597 347.965 154.569C347.972 154.54 347.971 154.51 347.963 154.482C347.956 154.453 347.941 154.427 347.921 154.406C346.236 152.886 344.429 151.498 342.668 150.071C341.323 148.989 339.62 147.941 338.338 146.674L340.393 146.778C343.366 149.478 346.49 152.333 349.861 154.544C349.861 154.642 349.861 154.739 349.89 154.837C349.22 154.768 348.539 154.728 347.863 154.682L347.858 154.699Z" fill="#3C3C3B"/>
<path d="M299.658 185.29C296.658 183.74 293.658 182.17 290.658 180.64C290.478 180.55 290.318 180.81 290.498 180.91C293.498 182.51 296.498 184.07 299.498 185.64C299.658 185.76 299.858 185.41 299.658 185.29Z" fill="#3C3C3B"/>
<path d="M19.9477 124.75C17.0838 123.604 14.3486 122.159 11.7877 120.44C11.6277 120.34 11.4977 120.58 11.6377 120.69C14.1878 122.479 16.9486 123.946 19.8577 125.06C20.0577 125.14 20.1277 124.83 19.9477 124.75Z" fill="#3C3C3B"/>
<path d="M38.0577 128.47C32.8477 125.99 27.6777 123.47 22.6077 120.69C20.2077 119.39 17.8177 118.05 15.4577 116.69C14.7077 116.26 12.9577 115.48 11.2777 114.62L11.3677 114.67C14.2077 116.423 17.0877 118.117 20.0077 119.75C25.841 123.023 31.811 126.023 37.9177 128.75C38.0777 128.77 38.2177 128.54 38.0577 128.47Z" fill="#3C3C3B"/>
<path d="M7.4377 111.79C7.44939 111.819 7.47104 111.843 7.49872 111.857C7.52639 111.871 7.55825 111.875 7.58851 111.868C7.61878 111.86 7.64543 111.842 7.66363 111.817C7.68183 111.792 7.69037 111.761 7.6877 111.73V111.58C7.68444 111.563 7.67746 111.547 7.66726 111.532C7.65705 111.518 7.64387 111.506 7.62863 111.498C7.61339 111.489 7.59646 111.484 7.57902 111.483C7.56159 111.481 7.54408 111.484 7.5277 111.49H7.3277C7.30694 111.496 7.28783 111.507 7.27168 111.522C7.25553 111.536 7.24273 111.554 7.23417 111.574C7.22562 111.594 7.2215 111.616 7.2221 111.638C7.22271 111.659 7.22804 111.681 7.2377 111.7C7.91475 112.578 8.80679 113.267 9.8277 113.7C8.86472 113.305 8.03524 112.642 7.4377 111.79Z" fill="#3C3C3B"/>
<path d="M11.2777 114.6C10.8377 114.33 10.2777 114.07 9.78772 113.78C10.2577 114.06 10.7677 114.33 11.2777 114.6Z" fill="#3C3C3B"/>
<path d="M26.2678 116.12C20.4399 111.775 14.1154 108.139 7.42775 105.29C7.31775 105.29 7.21775 105.41 7.32775 105.46C13.9571 108.427 20.2665 112.062 26.1578 116.31C26.2778 116.4 26.3778 116.21 26.2678 116.12Z" fill="#3C3C3B"/>
<path d="M50.8277 120.56C33.8077 111.14 16.9144 101.53 0.147719 91.7302C0.0377189 91.6602 -0.0622796 91.8402 0.0477204 91.9102C16.4477 102.27 33.4277 111.91 50.6377 120.91C50.8477 121 51.0377 120.67 50.8277 120.56Z" fill="#3C3C3B"/>
<path d="M31.2777 102.15C27.176 99.5682 22.9103 97.2567 18.5077 95.23C18.3977 95.23 18.3077 95.34 18.4177 95.39C22.7577 97.55 26.9677 99.92 31.1077 102.45C31.1475 102.473 31.1946 102.478 31.2387 102.466C31.2828 102.454 31.3202 102.425 31.3427 102.385C31.3653 102.345 31.3711 102.298 31.3589 102.254C31.3467 102.21 31.3175 102.173 31.2777 102.15Z" fill="#3C3C3B"/>
<path d="M285.518 117.37C281.317 113.797 276.843 110.557 272.138 107.68C272.115 107.674 272.09 107.675 272.068 107.684C272.046 107.693 272.028 107.709 272.015 107.729C272.003 107.749 271.998 107.773 272 107.796C272.002 107.82 272.012 107.842 272.028 107.86C276.687 110.775 281.144 114.002 285.368 117.52C285.478 117.61 285.658 117.46 285.518 117.37Z" fill="#3C3C3B"/>
<path d="M314.868 128.61C301.261 118.27 287.721 107.85 274.248 97.3498C274.118 97.2398 273.928 97.4197 274.058 97.5297C287.168 108.53 300.748 119.06 314.628 129.03C314.878 129.21 315.108 128.8 314.868 128.61Z" fill="#3C3C3B"/>
<path d="M321.078 123.66C312.164 116.167 302.921 109.093 293.348 102.44C293.218 102.35 293.098 102.57 293.228 102.66C302.628 109.5 311.841 116.573 320.868 123.88C321.018 124 321.238 123.79 321.078 123.66Z" fill="#3C3C3B"/>
<path d="M320.308 110.3C311.468 103.88 302.558 97.5502 293.658 91.2202C293.528 91.1302 293.408 91.3402 293.538 91.4302C302.378 97.8602 311.208 104.29 320.108 110.63C320.308 110.77 320.508 110.44 320.308 110.3Z" fill="#3C3C3B"/>
<path d="M344.868 120.56C328.227 108.799 312.632 95.6236 298.258 81.1799C298.23 81.1507 298.192 81.1338 298.151 81.1329C298.111 81.1319 298.072 81.147 298.043 81.1749C298.014 81.2027 297.997 81.241 297.996 81.2813C297.995 81.3217 298.01 81.3607 298.038 81.3899C312.143 96.1782 327.739 109.469 344.578 121.05C344.878 121.25 345.158 120.77 344.868 120.56Z" fill="#3C3C3B"/>
<path d="M338.788 105.56C333.478 101.08 328.118 96.6701 322.788 92.2501C322.598 92.0901 322.328 92.3601 322.518 92.5201C327.838 96.9801 333.138 101.47 338.518 105.87C338.658 106.05 338.998 105.74 338.788 105.56Z" fill="#3C3C3B"/>
</svg>
