<svg width="118" height="71" viewBox="0 0 118 71" fill="none" xmlns="http://www.w3.org/2000/svg">
<g filter="url(#filter0_d)">
<path d="M58.7709 63C57.3609 62.9972 56.0024 62.4199 54.9606 61.3808C53.9188 60.3418 53.2683 58.9154 53.1361 57.3802L4.44351 30.2501C4.34862 30.1987 4.26404 30.1271 4.19471 30.0396C4.12537 29.9521 4.07268 29.8503 4.03969 29.7403C4.0067 29.6303 3.99408 29.5141 4.00257 29.3987C4.01106 29.2833 4.04048 29.1708 4.08913 29.068C4.13419 28.9623 4.19859 28.8679 4.27834 28.7905C4.35809 28.7131 4.45151 28.6545 4.55281 28.6182C4.65411 28.5818 4.76115 28.5686 4.86731 28.5793C4.97346 28.59 5.07649 28.6244 5.17001 28.6804L54.784 56.2175V56.7601C54.784 57.9319 55.2097 59.0557 55.9673 59.8843C56.725 60.7129 57.7525 61.1784 58.824 61.1784C59.8955 61.1784 60.9231 60.7129 61.6807 59.8843C62.4384 59.0557 62.864 57.9319 62.864 56.7601V56.2175L112.832 28.7192C112.927 28.667 113.029 28.6356 113.135 28.6269C113.24 28.6181 113.346 28.6321 113.446 28.6681C113.547 28.7041 113.64 28.7614 113.72 28.8366C113.8 28.9119 113.866 29.0037 113.913 29.1067C113.961 29.2098 113.99 29.3221 113.998 29.4373C114.006 29.5525 113.993 29.6683 113.96 29.7781C113.927 29.8878 113.875 29.9894 113.806 30.0771C113.737 30.1647 113.653 30.2367 113.559 30.2888L64.4056 57.4189C64.2652 58.9472 63.6111 60.3641 62.5701 61.3952C61.5291 62.4262 60.1753 62.9981 58.7709 63Z" fill="#FFF8F8"/>
<path d="M58.7709 63C57.3609 62.9972 56.0024 62.4199 54.9606 61.3808C53.9188 60.3418 53.2683 58.9154 53.1361 57.3802L4.44351 30.2501C4.34862 30.1987 4.26404 30.1271 4.19471 30.0396C4.12537 29.9521 4.07268 29.8503 4.03969 29.7403C4.0067 29.6303 3.99408 29.5141 4.00257 29.3987C4.01106 29.2833 4.04048 29.1708 4.08913 29.068C4.13419 28.9623 4.19859 28.8679 4.27834 28.7905C4.35809 28.7131 4.45151 28.6545 4.55281 28.6182C4.65411 28.5818 4.76115 28.5686 4.86731 28.5793C4.97346 28.59 5.07649 28.6244 5.17001 28.6804L54.784 56.2175V56.7601C54.784 57.9319 55.2097 59.0557 55.9673 59.8843C56.725 60.7129 57.7525 61.1784 58.824 61.1784C59.8955 61.1784 60.9231 60.7129 61.6807 59.8843C62.4384 59.0557 62.864 57.9319 62.864 56.7601V56.2175L112.832 28.7192C112.927 28.667 113.029 28.6356 113.135 28.6269C113.24 28.6181 113.346 28.6321 113.446 28.6681C113.547 28.7041 113.64 28.7614 113.72 28.8366C113.8 28.9119 113.866 29.0037 113.913 29.1067C113.961 29.2098 113.99 29.3221 113.998 29.4373C114.006 29.5525 113.993 29.6683 113.96 29.7781C113.927 29.8878 113.875 29.9894 113.806 30.0771C113.737 30.1647 113.653 30.2367 113.559 30.2888L64.4056 57.4189C64.2652 58.9472 63.6111 60.3641 62.5701 61.3952C61.5291 62.4262 60.1753 62.9981 58.7709 63Z" fill="url(#paint0_linear)"/>
<path d="M58.9658 54.8416L58.6645 54.5897L16.7938 16.9951L17.3963 16.2006L58.9658 53.5238L100.606 16.2006L101.209 16.9951L58.9658 54.8416Z" fill="#FFF8F8"/>
<path d="M58.9658 54.8416L58.6645 54.5897L16.7938 16.9951L17.3963 16.2006L58.9658 53.5238L100.606 16.2006L101.209 16.9951L58.9658 54.8416Z" fill="url(#paint1_linear)"/>
<path d="M58.9303 54.706C58.853 54.7045 58.7771 54.6826 58.7092 54.6421C58.6414 54.6016 58.5834 54.5437 58.5405 54.4734L29.8884 7.34451L30.668 6.78253L58.9303 53.3107L87.5647 6.80191L88.3443 7.3639L59.3556 54.4734C59.3094 54.5493 59.2458 54.6108 59.1712 54.6515C59.0966 54.6923 59.0136 54.7111 58.9303 54.706Z" fill="#FFF8F8"/>
<path d="M58.9303 54.706C58.853 54.7045 58.7771 54.6826 58.7092 54.6421C58.6414 54.6016 58.5834 54.5437 58.5405 54.4734L29.8884 7.34451L30.668 6.78253L58.9303 53.3107L87.5647 6.80191L88.3443 7.3639L59.3556 54.4734C59.3094 54.5493 59.2458 54.6108 59.1712 54.6515C59.0966 54.6923 59.0136 54.7111 58.9303 54.706Z" fill="url(#paint2_linear)"/>
<path d="M58.9303 54.706C58.8237 54.7013 58.7214 54.6592 58.6384 54.5859C58.5554 54.5126 58.4962 54.412 58.4696 54.299L47.5191 0.232546L48.4405 0L58.9303 51.8379L69.7923 0L70.7137 0.232546L59.3733 54.299C59.3502 54.4104 59.2944 54.5105 59.2144 54.584C59.1345 54.6575 59.0347 54.7003 58.9303 54.706Z" fill="#FFF8F8"/>
<path d="M58.9303 54.706C58.8237 54.7013 58.7214 54.6592 58.6384 54.5859C58.5554 54.5126 58.4962 54.412 58.4696 54.299L47.5191 0.232546L48.4405 0L58.9303 51.8379L69.7923 0L70.7137 0.232546L59.3733 54.299C59.3502 54.4104 59.2944 54.5105 59.2144 54.584C59.1345 54.6575 59.0347 54.7003 58.9303 54.706Z" fill="url(#paint3_linear)"/>
</g>
<defs>
<filter id="filter0_d" x="0" y="0" width="118" height="71" filterUnits="userSpaceOnUse" color-interpolation-filters="sRGB">
<feFlood flood-opacity="0" result="BackgroundImageFix"/>
<feColorMatrix in="SourceAlpha" type="matrix" values="0 0 0 0 0 0 0 0 0 0 0 0 0 0 0 0 0 0 127 0"/>
<feOffset dy="4"/>
<feGaussianBlur stdDeviation="2"/>
<feColorMatrix type="matrix" values="0 0 0 0 0 0 0 0 0 0 0 0 0 0 0 0 0 0 0.25 0"/>
<feBlend mode="normal" in2="BackgroundImageFix" result="effect1_dropShadow"/>
<feBlend mode="normal" in="SourceGraphic" in2="effect1_dropShadow" result="shape"/>
</filter>
<linearGradient id="paint0_linear" x1="59" y1="23.8" x2="59" y2="63" gradientUnits="userSpaceOnUse">
<stop/>
<stop offset="1" stop-color="white" stop-opacity="0"/>
</linearGradient>
<linearGradient id="paint1_linear" x1="59" y1="23.8" x2="59" y2="63" gradientUnits="userSpaceOnUse">
<stop/>
<stop offset="1" stop-color="white" stop-opacity="0"/>
</linearGradient>
<linearGradient id="paint2_linear" x1="59" y1="23.8" x2="59" y2="63" gradientUnits="userSpaceOnUse">
<stop/>
<stop offset="1" stop-color="white" stop-opacity="0"/>
</linearGradient>
<linearGradient id="paint3_linear" x1="59" y1="23.8" x2="59" y2="63" gradientUnits="userSpaceOnUse">
<stop/>
<stop offset="1" stop-color="white" stop-opacity="0"/>
</linearGradient>
</defs>
</svg>
